<?xml version="1.0" encoding="UTF-8" standalone="no"?><!DOCTYPE svg PUBLIC "-//W3C//DTD SVG 1.1//EN" "http://www.w3.org/Graphics/SVG/1.1/DTD/svg11.dtd"><svg width="900px" height="1440px" version="1.1" xmlns="http://www.w3.org/2000/svg" xmlns:xlink="http://www.w3.org/1999/xlink" xml:space="preserve" xmlns:serif="http://www.serif.com/" style="fill-rule:evenodd;clip-rule:evenodd;stroke-linejoin:round;stroke-miterlimit:2;"><path d="M263.012,705.656c11.982,-0 21.741,-6.602 27.625,-18.369l2.367,-0c-1.004,10.261 1.22,17.579 18.584,17.579l6.745,0l2.583,-14.852l-3.229,-0c-8.108,-0 -10.117,-2.512 -8.897,-9.615l9.256,-53.025l-1.65,-0c-42.765,-0 -75.054,22.386 -75.054,56.899c0,13.562 7.893,21.383 21.67,21.383Zm4.664,-16.503c-5.454,-0 -8.252,-2.655 -8.252,-7.965c0,-18.369 16.001,-32.791 37.598,-36.45l-2.08,11.552c-3.66,20.952 -14.207,32.863 -27.266,32.863Z" style="fill:#fff;fill-rule:nonzero;"/><path d="M347.68,705.584c33.078,-0 57.976,-23.678 57.976,-55.106c0,-15.212 -7.677,-23.822 -20.88,-23.822c-12.413,-0 -21.526,5.955 -25.544,16.575l-1.865,-0l3.659,-20.665c3.444,-19.301 -3.085,-27.553 -21.598,-27.553c-3.659,0 -7.318,0.287 -10.906,1.148l1.866,16.073c2.08,-0.574 4.161,-0.79 6.242,-0.79c5.597,0 7.749,3.588 6.243,11.84l-14.207,80.793l0.071,0l0,0.072c6.386,0.861 12.557,1.435 18.943,1.435Zm4.018,-29.849l-0.072,0.574c4.306,-23.248 15.929,-33.15 26.477,-33.15c6.027,0 9.471,3.588 9.471,9.902c0,20.521 -15.857,36.02 -36.952,36.02l-1.292,-0l2.368,-13.346Z" style="fill:#fff;fill-rule:nonzero;"/><path d="M446.412,705.584c26.261,-0 41.76,-18.799 41.76,-50.657c-0,-17.795 -10.333,-28.271 -27.84,-28.271c-26.262,-0 -41.76,19.086 -41.76,51.375c-0,17.292 10.332,27.553 27.84,27.553Zm3.157,-16.503c-8.108,-0 -12.844,-5.525 -12.844,-14.853c0,-19.517 7.821,-31.069 20.952,-31.069c7.821,0 12.341,5.525 12.341,14.853c0,19.517 -7.605,31.069 -20.449,31.069Z" style="fill:#fff;fill-rule:nonzero;"/><path d="M524.264,705.656c13.991,-0 19.732,-6.889 24.108,-18.369l2.512,-0c-1.22,11.983 4.305,17.579 17.292,17.579l6.027,0l2.655,-14.852l-3.3,-0c-6.53,-0 -8.252,-2.584 -6.889,-10.261l9.113,-51.662l-18.01,0l-5.023,28.271l0,-0.072c-4.09,21.239 -11.121,32.863 -22.53,32.863c-6.171,-0 -9.687,-3.588 -9.687,-9.831c0,-10.404 4.377,-25.328 14.351,-49.868l-17.795,-2.798c-10.26,23.965 -14.565,40.253 -14.565,54.46c-0,15.571 7.892,24.54 21.741,24.54Z" style="fill:#fff;fill-rule:nonzero;"/><path d="M629.74,705.584c10.476,-0 18.154,-2.224 25.401,-4.879l-3.229,-15.14c-7.391,2.655 -11.839,3.516 -18.943,3.516c-8.108,-0 -11.696,-3.014 -11.696,-9.902c0,-5.31 0.718,-9.113 2.368,-18.441l2.942,-16.574l33.221,-0l2.799,-16.073l-33.222,0l4.019,-22.961l-18.01,0l-4.019,22.961l-17.292,0l-2.87,16.073l17.364,-0l-2.942,16.574c-1.865,10.62 -2.439,15.284 -2.439,21.598c-0,15.283 9.184,23.248 26.548,23.248Z" style="fill:#fff;fill-rule:nonzero;"/></svg>