<?xml version="1.0" encoding="UTF-8" standalone="no"?><!DOCTYPE svg PUBLIC "-//W3C//DTD SVG 1.1//EN" "http://www.w3.org/Graphics/SVG/1.1/DTD/svg11.dtd"><svg width="900px" height="1440px" version="1.1" xmlns="http://www.w3.org/2000/svg" xmlns:xlink="http://www.w3.org/1999/xlink" xml:space="preserve" xmlns:serif="http://www.serif.com/" style="fill-rule:evenodd;clip-rule:evenodd;stroke-linejoin:round;stroke-miterlimit:2;"><path d="M94.858,719.268c25.197,0 45.49,-13.348 56.522,-37.046l3.541,0c-2.315,26.014 6.81,35.548 33.505,35.548l9.67,0l4.086,-23.835l-5.584,0c-15.935,0 -19.885,-6.129 -17.297,-20.702l17.978,-102.557l-2.724,0c-78.722,0 -138.377,42.494 -138.377,108.005c0,25.741 14.029,40.587 38.68,40.587Zm8.853,-25.878c-11.577,0 -18.387,-6.537 -18.387,-18.114c0,-39.634 33.369,-70.687 78.042,-77.497l-5.04,27.785c-7.763,43.311 -28.465,67.826 -54.615,67.826Z" style="fill:#c6c6c6;fill-rule:nonzero;"/><path d="M250.478,719.268c30.1,0 41.677,-14.029 50.802,-37.046l2.996,0c-2.86,24.924 8.308,35.548 36.91,35.548l6.401,0l4.222,-23.835l-5.856,0c-15.935,0 -20.021,-6.265 -16.889,-23.698l17.433,-98.199l-29.554,0l-9.534,53.662l0,-0.136c-8.308,43.855 -23.971,67.826 -48.078,67.826c-12.53,0 -19.749,-7.491 -19.749,-20.838c0,-20.43 8.445,-49.712 28.193,-97.926l-28.874,-5.312c-20.021,46.988 -28.465,78.859 -28.465,106.643c0,27.512 14.573,43.311 40.042,43.311Z" style="fill:#c6c6c6;fill-rule:nonzero;"/><path d="M394.521,719.268c25.469,0 45.49,-14.437 55.841,-37.182l3.541,0c-2.179,24.515 7.763,35.684 32.824,35.684l10.351,0l4.222,-23.835l-8.308,0c-12.53,0 -17.161,-6.946 -14.709,-20.838l20.429,-115.632c5.993,-33.777 -5.175,-48.214 -36.773,-48.214c-6.946,0 -13.892,0.545 -20.702,2.179l3.132,23.426c4.495,-1.09 8.989,-1.498 13.484,-1.498c11.032,0 14.846,6.129 12.394,20.021l-3.133,17.569c-65.238,8.581 -111.954,48.895 -111.954,107.733c0,25.741 14.301,40.587 39.361,40.587Zm62.379,-91.661c-8.853,41.949 -28.466,65.783 -53.526,65.783c-12.122,0 -19.068,-6.537 -19.068,-18.114c0,-40.451 33.505,-71.913 78.178,-78.859l-5.584,31.19Z" style="fill:#c6c6c6;fill-rule:nonzero;"/><path d="M596.955,685.763c-9.398,5.448 -15.118,7.491 -24.107,7.491c-16.344,0 -24.38,-7.082 -23.426,-20.838c1.225,-18.932 12.121,-32.824 16.752,-52.3c8.172,-33.369 -7.355,-50.802 -44.945,-50.802c-10.76,0 -21.52,0.817 -32.143,3.814l2.86,24.788c8.308,-2.18 16.616,-3.133 24.924,-3.133c17.297,0 24.38,7.763 20.566,22.609c-4.222,16.888 -15.935,35.956 -17.161,56.25c-1.906,29.827 14.301,45.49 47.261,45.49c15.935,0 27.648,-5.04 38.816,-11.441l-9.397,-21.928Zm-32.007,-136.606c11.168,0 20.157,-8.989 20.157,-20.157c0,-11.169 -8.989,-20.158 -20.157,-20.158c-11.168,0 -20.157,8.989 -20.157,20.158c0,11.168 8.989,20.157 20.157,20.157Z" style="fill:#c6c6c6;fill-rule:nonzero;"/><path d="M818.299,647.744c0,-11.709 -3.502,-21.487 -10.507,-29.333c-7.004,-7.847 -16.644,-11.77 -28.919,-11.77c-12.275,0 -23.282,5.915 -33.022,17.745c-9.739,11.83 -14.609,19.616 -14.609,23.358c0,3.984 4.97,12.223 14.91,24.717c9.94,12.494 20.913,18.741 32.921,18.741c12.008,0 21.548,-4.105 28.619,-12.313c7.072,-8.209 10.607,-18.59 10.607,-31.145Zm-209.939,2.173c0,13.641 3.87,24.052 11.608,31.235c7.739,7.183 16.478,10.774 26.217,10.774c12.275,0 23.75,-6.609 34.423,-19.828c10.674,-13.218 16.011,-21.879 16.011,-25.983c0,-2.777 -5.771,-10.14 -17.312,-22.091c-11.541,-11.951 -23.182,-17.926 -34.923,-17.926c-10.14,0 -18.679,3.983 -25.617,11.95c-6.938,7.968 -10.407,18.59 -10.407,31.869Zm102.468,29.696c-6.804,10.381 -13.609,18.349 -20.413,23.901c-12.809,10.503 -27.619,15.754 -44.43,15.754c-20.413,-0 -37.024,-6.579 -49.833,-19.737c-12.808,-13.158 -19.212,-30.239 -19.212,-51.244c0,-19.435 6.137,-36.093 18.412,-49.976c12.275,-13.882 28.886,-20.823 49.833,-20.823c13.475,-0 25.583,3.682 36.324,11.046c10.74,7.363 20.647,19.133 29.72,35.309c8.805,-14.486 17.278,-24.988 25.416,-31.507c12.275,-10.14 27.152,-15.21 44.63,-15.21c21.214,-0 37.758,7.152 49.633,21.457c11.874,14.305 17.812,30.692 17.812,49.161c0,18.952 -5.838,35.611 -17.512,49.976c-11.674,14.365 -27.919,21.548 -48.732,21.548c-16.144,0 -29.887,-4.648 -41.228,-13.943c-10.14,-7.967 -18.879,-18.711 -26.217,-32.231l-4.203,6.519Z" style="fill:#c6c6c6;fill-rule:nonzero;"/></svg>