<?xml version="1.0" encoding="UTF-8" standalone="no"?><!DOCTYPE svg PUBLIC "-//W3C//DTD SVG 1.1//EN" "http://www.w3.org/Graphics/SVG/1.1/DTD/svg11.dtd"><svg width="900px" height="1440px" version="1.1" xmlns="http://www.w3.org/2000/svg" xmlns:xlink="http://www.w3.org/1999/xlink" xml:space="preserve" xmlns:serif="http://www.serif.com/" style="fill-rule:evenodd;clip-rule:evenodd;stroke-linejoin:round;stroke-miterlimit:2;"><path d="M319.051,738.231l9.256,-1.004c25.041,-2.727 37.383,-14.207 39.966,-41.043l3.946,-36.952l29.275,-0l2.727,-15.355l-30.351,-0l0.789,-7.176c1.65,-17.507 9.328,-25.113 25.185,-25.113c3.66,-0 7.678,0.287 13.561,1.004l4.521,-16.072c-4.879,-1.005 -9.256,-1.435 -14.781,-1.435c-29.132,-0 -43.698,12.772 -46.424,42.334l-0.646,6.458l-23.678,-0l-2.727,15.355l24.755,-0l-3.731,35.445c-1.507,17.293 -9.256,24.612 -24.109,26.262l-8.108,0.861l0.574,16.431Z" style="fill:#fff;fill-rule:nonzero;"/><path d="M435.218,705.656c11.983,-0 21.741,-6.602 27.625,-18.369l2.368,-0c-1.005,10.261 1.22,17.579 18.584,17.579l6.745,0l2.583,-14.852l-3.229,-0c-8.108,-0 -10.117,-2.512 -8.897,-9.615l9.256,-53.025l-1.651,-0c-42.764,-0 -75.053,22.386 -75.053,56.899c0,13.562 7.893,21.383 21.669,21.383Zm4.664,-16.503c-5.453,-0 -8.251,-2.655 -8.251,-7.965c-0,-18.369 16.001,-32.791 37.598,-36.45l-2.081,11.552c-3.659,20.952 -14.207,32.863 -27.266,32.863Z" style="fill:#fff;fill-rule:nonzero;"/><path d="M522.111,705.656c11.337,-0 20.306,-6.602 25.4,-18.369l1.938,-0l-3.947,22.459c-3.587,20.88 2.009,28.844 22.244,28.844l1.865,0l2.583,-14.853l-1.865,0c-6.817,0 -8.682,-3.874 -6.96,-13.417l14.709,-82.946l-1.866,-0c-42.908,-0 -75.34,22.315 -75.34,56.828c0,13.561 7.75,21.454 21.239,21.454Zm34.872,-60.918l-2.296,12.915c-4.521,20.163 -13.633,31.5 -26.621,31.5c-6.027,-0 -9.112,-3.014 -9.112,-8.754c-0,-17.867 16.144,-31.93 38.029,-35.661Z" style="fill:#fff;fill-rule:nonzero;"/></svg>