<svg xmlns="http://www.w3.org/2000/svg" width="512" height="512" viewBox="0 0 512 512" version="1.1"><path d="M 112 100.416 C 69.292 107.943, 39.839 131.784, 19.541 175.258 C 6.515 203.158, 0.800 229.431, 0.781 261.500 C 0.764 290.572, 5.325 310.689, 17.559 335.500 C 42.523 386.129, 83.394 412.979, 135.631 413.068 C 151.043 413.094, 160.404 411.788, 172.500 407.924 C 206.918 396.928, 231.933 372.293, 258.518 323.212 C 262.774 315.353, 266.368 309.053, 266.503 309.212 C 266.638 309.370, 268.440 313.775, 270.509 319 C 279.369 341.385, 293.663 365.310, 307.689 381.232 C 329.930 406.480, 358.022 416.825, 394 413.016 C 431.991 408.994, 458.096 393.319, 478.667 362.178 C 490.134 344.817, 502.930 314.731, 507.451 294.500 C 511.586 275.991, 512.377 268.616, 512.117 251 C 511.394 201.983, 499.559 170.181, 471.062 140.686 C 458.454 127.636, 446.885 118.704, 433.957 112.043 C 415.661 102.614, 400.690 99.004, 379.881 99.001 C 360.181 98.999, 343.923 102.497, 328.866 109.976 C 302.423 123.111, 284.843 143.237, 258.128 190.956 L 250.293 204.953 243.693 191.726 C 228.825 161.935, 215.583 141.741, 201.898 127.993 C 189.037 115.071, 175.467 106.726, 159.380 101.846 C 150.600 99.183, 123.619 98.368, 112 100.416 M 378.870 159.003 C 365.225 161.172, 353.125 167.157, 343.769 176.365 C 330.163 189.755, 312.691 216.962, 293.402 254.793 C 282.890 275.409, 281.931 278.527, 284.462 283.861 C 291.914 299.570, 306.620 317.141, 319.132 325.285 C 340.333 339.084, 362.269 344.865, 389 343.699 C 427.261 342.031, 452.641 328.988, 470.147 302 C 480.422 286.159, 484.965 269.998, 484.987 249.208 C 485.015 222.983, 477.332 203.364, 460.404 186.436 C 448.127 174.160, 432.477 165.082, 416.500 160.970 C 407.369 158.620, 387.738 157.594, 378.870 159.003 M 108.160 168.557 C 76.715 174.298, 53.135 192.605, 38.943 222.294 C 32.521 235.728, 30.704 244.174, 30.615 261 C 30.521 278.682, 32.652 288.326, 40.039 303.642 C 52.234 328.929, 69.067 343.692, 93.029 350.115 C 104.985 353.320, 127.755 353.341, 139.500 350.157 C 170.871 341.655, 196.443 317.229, 217.030 276.102 C 220.400 269.371, 225.184 257.706, 227.661 250.181 L 232.166 236.500 229.610 231.283 C 221.586 214.904, 207.635 196.064, 197.641 188.112 C 179.276 173.499, 158.104 166.903, 130.215 167.108 C 122.122 167.168, 112.197 167.819, 108.160 168.557 M 0.336 262 C 0.336 266.125, 0.513 267.813, 0.728 265.750 C 0.944 263.688, 0.944 260.313, 0.728 258.250 C 0.513 256.188, 0.336 257.875, 0.336 262" stroke="none" fill="#fbfafb" fill-rule="evenodd"/><path d="M 37.105 1.583 C 20.218 6.124, 5.022 21.919, 1.079 39.028 C 0.401 41.971, 0.102 79.743, 0.205 149.500 C 0.290 207.800, 0.499 253.250, 0.667 250.500 C 2.280 224.215, 8.718 198.411, 19.326 175.709 C 40.468 130.468, 71.324 106.234, 115.812 99.930 C 127.867 98.221, 150.631 99.232, 159.380 101.864 C 175.393 106.681, 189.021 115.055, 201.898 127.993 C 215.583 141.741, 228.825 161.935, 243.693 191.726 L 250.293 204.953 258.128 190.956 C 284.843 143.237, 302.423 123.111, 328.866 109.976 C 343.923 102.497, 360.181 98.999, 379.881 99.001 C 413.373 99.005, 440.203 110.548, 466.800 136.396 C 486.941 155.971, 498.169 174.299, 505.484 199.542 C 509.312 212.752, 511.068 223.785, 511.924 240 C 512.377 248.598, 512.752 211.028, 512.844 147.691 C 512.933 87.111, 512.622 41.115, 512.128 41.421 C 511.648 41.718, 511.004 40.411, 510.697 38.518 C 510.389 36.624, 508.684 32.021, 506.908 28.287 C 503.102 20.290, 493.201 9.912, 485.425 5.770 C 473.888 -0.377, 488.839 -0.006, 255.540 0.066 C 72.668 0.122, 41.736 0.337, 37.105 1.583 M 0.482 148.500 C 0.482 207.350, 0.603 231.278, 0.750 201.673 C 0.897 172.069, 0.897 123.919, 0.750 94.673 C 0.603 65.428, 0.482 89.650, 0.482 148.500 M 378.870 159.003 C 365.225 161.172, 353.125 167.157, 343.769 176.365 C 330.163 189.755, 312.691 216.962, 293.402 254.793 C 282.890 275.409, 281.931 278.527, 284.462 283.861 C 291.914 299.570, 306.620 317.141, 319.132 325.285 C 340.333 339.084, 362.269 344.865, 389 343.699 C 427.261 342.031, 452.641 328.988, 470.147 302 C 480.422 286.159, 484.965 269.998, 484.987 249.208 C 485.015 222.983, 477.332 203.364, 460.404 186.436 C 448.127 174.160, 432.477 165.082, 416.500 160.970 C 407.369 158.620, 387.738 157.594, 378.870 159.003 M 108.160 168.557 C 76.715 174.298, 53.135 192.605, 38.943 222.294 C 32.521 235.728, 30.704 244.174, 30.615 261 C 30.521 278.682, 32.652 288.326, 40.039 303.642 C 52.234 328.929, 69.067 343.692, 93.029 350.115 C 104.985 353.320, 127.755 353.341, 139.500 350.157 C 170.871 341.655, 196.443 317.229, 217.030 276.102 C 220.400 269.371, 225.184 257.706, 227.661 250.181 L 232.166 236.500 229.610 231.283 C 221.586 214.904, 207.635 196.064, 197.641 188.112 C 179.276 173.499, 158.104 166.903, 130.215 167.108 C 122.122 167.168, 112.197 167.819, 108.160 168.557 M 0.164 368.500 C 0.089 433.994, 0.404 470.043, 1.079 472.972 C 4.010 485.691, 15.048 500.089, 26.575 506.230 C 38.106 512.374, 23.245 512, 256 512 C 488.812 512, 474.030 512.373, 485.344 506.217 C 496.397 500.203, 506.414 488.182, 509.604 477.102 C 510.492 474.021, 511.618 470.719, 512.109 469.764 C 513.243 467.553, 513.238 266.964, 512.103 269 C 511.643 269.825, 510.966 273.200, 510.597 276.500 C 506.926 309.364, 488.116 353.304, 467.628 376.875 C 449.258 398.010, 425.475 409.684, 394 413.016 C 358.022 416.825, 329.930 406.480, 307.689 381.232 C 293.663 365.310, 279.369 341.385, 270.509 319 C 268.440 313.775, 266.638 309.370, 266.503 309.212 C 266.368 309.053, 262.774 315.353, 258.518 323.212 C 231.933 372.293, 206.918 396.928, 172.500 407.924 C 160.404 411.788, 151.043 413.094, 135.631 413.068 C 83.394 412.979, 42.523 386.129, 17.559 335.500 C 7.950 316.013, 2.934 298.262, 1.042 277.052 C 0.622 272.348, 0.227 313.500, 0.164 368.500 M 0.481 369.500 C 0.481 425.050, 0.602 447.922, 0.750 420.326 C 0.898 392.731, 0.898 347.281, 0.750 319.326 C 0.602 291.372, 0.481 313.950, 0.481 369.500" stroke="none" fill="#441444" fill-rule="evenodd"/></svg>