<svg xmlns="http://www.w3.org/2000/svg" version="1.1" xmlns:xlink="http://www.w3.org/1999/xlink" xmlns:svgjs="http://svgjs.dev/svgjs" width="100%" height="100%" viewBox="0 0 1000 600"><rect width="1000" height="600" x="0" y="0" fill="#2c2936"/><g><rect width="333.3333333333333" height="333.3333333333333" rx="13.333333333333334" ry="13.333333333333334" y="164.6419482635049" fill="#c3aef5" transform="matrix(0.8776873908649514,0,0,0.8776873908649514,0,9.2145991699077)" x="142.41972351074222"/><path d="M204.04147850777682 406.30861609657677L204.04147850777682 406.30861609657677Q153.56243889774393 406.30861609657677 153.56243889774393 366.8774801734372L153.56243889774393 366.8774801734372Q153.56243889774393 326.8176017640517 194.96962263479938 293.8535314137277L194.96962263479938 293.8535314137277Q234.40075855793893 261.5182035496497 274.4606369673244 261.5182035496497L274.4606369673244 261.5182035496497Q295.8378814996871 261.5182035496497 310.7480604592341 271.84754439511903L310.7480604592341 271.84754439511903Q330.14925717768097 284.78167554075026 331.40674215017293 319.7217937049901L331.40674215017293 319.7217937049901Q396.07739787832895 256.30862294932604 430.3887735563228 256.30862294932604L430.3887735563228 256.30862294932604Q445.20913216069187 256.30862294932604 454.90973051991523 269.8714965812032Q464.6103288791387 283.43437021308034 464.6103288791387 298.9732916588734L464.6103288791387 298.9732916588734Q464.6103288791387 331.9373620091974 425.807935442245 364.9912527146993L425.807935442245 364.9912527146993Q388.3528473330214 397.9553230650233 354.0414716550275 397.9553230650233L354.0414716550275 397.9553230650233Q313.26303040421806 397.9553230650233 313.26303040421806 353.31460654156L313.26303040421806 353.31460654156Q310.7480604592341 355.9193968417219 306.79596483140244 358.5241871418837Q302.9336895587486 361.03915708686753 298.4426717998489 363.6439473870294L298.4426717998489 363.6439473870294Q280.2989600538941 375.9493360464146 269.3408767221788 383.0451441054762Q258.2929730352854 390.1409521645378 254.4306977626317 392.11699997845363L254.4306977626317 392.11699997845363Q228.5624354713693 406.30861609657677 204.04147850777682 406.30861609657677ZM366.97560280065875 383.6738865917222L366.97560280065875 383.6738865917222Q387.00554200535146 383.6738865917222 410.98757683787596 367.50622265968315L410.98757683787596 367.50622265968315Q422.5744026558373 359.7816721143756 431.64625852881466 351.33855872764417Q440.71811440179215 342.98526569609066 445.20913216069187 333.9134098231132L445.20913216069187 333.9134098231132Q451.6761977335075 324.8415539501358 451.6761977335075 306.7876625593589L451.6761977335075 306.7876625593589Q451.6761977335075 270.5002390674492 418.08338489693756 270.5002390674492L418.08338489693756 270.5002390674492Q403.17320593739043 270.5002390674492 372.1851834009824 297.7158066863815L372.1851834009824 297.7158066863815L331.40674215017293 337.14694260952103Q332.6642271226649 383.6738865917222 366.97560280065875 383.6738865917222ZM194.96962263479938 397.9553230650233L194.96962263479938 397.9553230650233Q222.72411238479967 397.9553230650233 259.6402783629553 378.5541263465765L259.6402783629553 378.5541263465765Q290.62830089936347 360.4104146006216 313.981593245642 337.14694260952103L313.981593245642 337.14694260952103Q314.610335731888 332.6559248506213 314.610335731888 329.06311064350155Q314.610335731888 325.4702964363818 314.610335731888 322.95532649139795L314.610335731888 322.95532649139795Q314.610335731888 293.13496857230376 298.4426717998489 282.80562772683436L298.4426717998489 282.80562772683436Q284.16123532654785 275.0810771815269 267.3648289082629 275.0810771815269L267.3648289082629 275.0810771815269Q243.47261443091637 275.0810771815269 218.23309462589995 290.6199986273199Q192.99357482088348 306.06909971793493 179.43070118900633 328.7038292227896L179.43070118900633 328.7038292227896Q162.63429477072137 355.2906543554759 162.63429477072137 372.71580326000685L162.63429477072137 372.71580326000685Q162.63429477072137 397.9553230650233 194.96962263479938 397.9553230650233Z " fill="#2c2936" transform="matrix(0.8776873908649514,0,0,0.8776873908649514,0,9.2145991699077)"/><path d="M569.2099360913375 405.79385609103474L569.2099360913375 405.79385609103474Q559.0863952391265 405.79385609103474 559.0863952391265 395.9105348522662L559.0863952391265 395.9105348522662Q559.0863952391265 386.5419699280169 572.6759619424333 369.7265969870565L572.6759619424333 369.7265969870565Q585.030113490894 354.1466392009422 594.1927758893356 348.2441001277888Q603.3211212001427 342.3072439670008 611.2140513561036 342.3072439670008L611.2140513561036 342.3072439670008Q620.6169333679876 342.3072439670008 620.6169333679876 347.7293438132696L620.6169333679876 347.7293438132696Q620.6169333679876 348.9647589681157 618.1461030582955 351.332638014904Q615.6752727486033 353.6661999740577 615.4350531351611 354.1466392009422L615.4350531351611 354.1466392009422Q610.7336121292191 361.83366683109557 610.7336121292191 385.3065547731708L610.7336121292191 385.3065547731708Q610.7336121292191 398.8961214764775 616.6704682900071 398.8961214764775L616.6704682900071 398.8961214764775Q622.092568136276 398.8961214764775 629.26483945191 392.4445090011703Q636.4371107675441 386.0272136134977 642.6141865417745 378.1342834575367L642.6141865417745 378.1342834575367Q643.3348453821014 377.3793075295752 643.8496016966207 377.3793075295752L643.8496016966207 377.3793075295752Q644.8447972380244 377.3793075295752 644.8447972380244 378.6147226844213L644.8447972380244 378.6147226844213Q644.8447972380244 379.12947899894044 644.4673092740436 380.3648941537865Q644.0898213100628 381.6003093086326 643.6093820831783 382.3209681489595L643.6093820831783 382.3209681489595Q633.4515241433329 395.9105348522662 626.1763015647949 400.61197585820815Q618.901078986257 405.3134168641501 611.9690272840652 405.3134168641501L611.9690272840652 405.3134168641501Q600.8502908904505 405.3134168641501 601.0905105038929 381.6003093086326L601.0905105038929 381.6003093086326Q596.3890694979508 389.97367869147814 587.5009438005861 397.38616962055454L587.5009438005861 397.38616962055454Q577.137183334933 405.79385609103474 569.2099360913375 405.79385609103474ZM575.901768180087 399.1363410899198L575.901768180087 399.1363410899198Q580.0884528715097 399.1363410899198 584.7898938774516 395.6703152388239L584.7898938774516 395.6703152388239Q599.3746561221623 384.0711396183247 603.8015604270273 352.1905652057693L603.8015604270273 352.1905652057693Q603.0809015867004 352.1905652057693 602.840681973258 351.95034559232704L602.840681973258 351.95034559232704Q597.8990213538739 351.95034559232704 589.7315544968359 357.8528846654804L589.7315544968359 357.8528846654804Q582.7995027946441 362.5543256714224 578.6128181032213 368.01074260532585L578.6128181032213 368.01074260532585Q568.7294968644529 380.8453333806711 568.7294968644529 390.24821539255504L568.7294968644529 390.24821539255504Q568.7294968644529 399.1363410899198 575.901768180087 399.1363410899198ZM692.7514515759441 405.3134168641501L692.7514515759441 405.3134168641501Q685.8537169613868 405.3134168641501 683.1426670382524 400.13153663132357Q680.3973000274833 394.9153393108624 680.3973000274833 385.3065547731708L680.3973000274833 385.3065547731708Q680.3973000274833 384.0711396183247 680.3973000274833 382.6984561129402Q680.3973000274833 381.3257726075557 680.6718367285603 380.0903574527096L680.6718367285603 380.0903574527096Q676.965591264022 387.2626287683437 668.5579047935419 394.19468047053556L668.5579047935419 394.19468047053556Q659.3952423951002 402.3278302399388 652.4975077805431 402.3278302399388L652.4975077805431 402.3278302399388Q648.0362863880433 402.3278302399388 644.5702605369474 397.1459500071122L644.5702605369474 397.1459500071122Q641.859210613813 392.20428938772795 641.859210613813 387.2626287683437L641.859210613813 387.2626287683437Q641.859210613813 378.85494229786354 646.0802123928704 368.25096221876817L646.0802123928704 368.25096221876817Q650.5071166977356 354.9016151289037 657.4391683999273 354.9016151289037L657.4391683999273 354.9016151289037Q659.9099987096195 354.9016151289037 660.1502183230617 358.1274213665573L660.1502183230617 358.1274213665573Q650.5071166977356 374.66825760644076 650.5071166977356 384.5515788452093L650.5071166977356 384.5515788452093Q650.5071166977356 394.19468047053556 656.4439728585236 394.19468047053556L656.4439728585236 394.19468047053556Q669.0383440204265 394.19468047053556 683.8633258785793 367.0155470639221L683.8633258785793 367.0155470639221Q684.3780821930984 365.5399122956337 685.4762289974061 363.41225286228774Q686.5743758017137 361.31891051657635 688.0843276576367 358.8480802068842L688.0843276576367 358.8480802068842Q688.8049864979636 356.61746951063435 694.7418426587516 356.61746951063435L694.7418426587516 356.61746951063435Q696.7322337415591 356.61746951063435 696.7322337415591 358.1274213665573L696.7322337415591 358.1274213665573L693.9868667307901 365.78013190907603Q692.0307927356172 371.2022317553449 691.2758168076557 376.14389237472915Q690.5551579673288 381.0855529941134 690.5551579673288 385.3065547731708L690.5551579673288 385.3065547731708Q690.5551579673288 398.8961214764775 696.9724533550014 398.8961214764775L696.9724533550014 398.8961214764775Q701.9141139743857 398.8961214764775 709.1893365529237 392.7190457022472Q716.4988762190961 386.5419699280169 722.6759519933265 378.1342834575367L722.6759519933265 378.1342834575367Q723.3966108336534 377.3793075295752 723.9113671481726 377.3793075295752L723.9113671481726 377.3793075295752Q724.8722456019417 377.3793075295752 724.8722456019417 379.12947899894044L724.8722456019417 379.12947899894044Q724.8722456019417 380.8453333806711 723.6368304470957 382.3209681489595L723.6368304470957 382.3209681489595Q713.7535092083272 395.43009562538157 706.2380670163469 400.37175624476583Q698.6883077367321 405.3134168641501 692.7514515759441 405.3134168641501ZM728.3382714530377 405.5536364775924L728.3382714530377 405.5536364775924Q717.4597546728654 405.5536364775924 717.4597546728654 393.4397045425741L717.4597546728654 393.4397045425741Q717.4597546728654 378.85494229786354 737.5009338514793 363.3093015993839L737.5009338514793 363.3093015993839Q756.0321611741703 348.7245393546734 771.8180214860922 348.7245393546734L771.8180214860922 348.7245393546734Q772.5729974140537 348.7245393546734 773.6711442183613 348.9647589681157Q774.8036081103036 349.20497858155795 775.5242669506305 349.20497858155795L775.5242669506305 349.20497858155795Q776.0390232651496 349.20497858155795 778.2696339613994 342.54746358044304L778.2696339613994 342.54746358044304L798.0362764389365 287.19400122581237Q799.7521308206672 282.4925602198704 802.2229611303593 275.8350452187555Q804.6937914400514 269.1775302176406 808.4000369045897 260.52962413371813L808.4000369045897 260.52962413371813Q810.6306476008396 256.30862235466077 811.6258431422433 256.30862235466077L811.6258431422433 256.30862235466077Q817.2881626019545 256.30862235466077 817.2881626019545 261.25028297404504L817.2881626019545 261.25028297404504Q817.2881626019545 264.7163088251409 815.194820256243 272.1287997542173Q813.1014779105316 279.5412906832937 808.640256518032 290.6600270769083L808.640256518032 290.6600270769083L796.8008612840905 320.55021040665616Q792.5798595050331 331.4287271868285 789.4913216179178 341.17478007505855Q786.4027837308028 350.95515005092324 784.1721730345529 359.36283652140344L784.1721730345529 359.36283652140344Q781.7013427248608 368.25096221876817 781.7013427248608 380.8453333806711L781.7013427248608 380.8453333806711Q781.7013427248608 400.61197585820815 791.1042247367448 400.61197585820815L791.1042247367448 400.61197585820815Q796.8008612840905 400.61197585820815 804.0760838626284 395.9105348522662Q811.3513064411663 391.2090938463242 821.5091643810118 378.1342834575367L821.5091643810118 378.1342834575367Q821.9896036078964 377.6195271430175 823.087750412204 376.3841119881714Q824.2202143041462 375.14869683332535 824.4604339175885 375.14869683332535L824.4604339175885 375.14869683332535Q825.21540984555 375.14869683332535 825.21540984555 376.14389237472915L825.21540984555 376.14389237472915Q825.21540984555 377.6195271430175 824.4604339175885 379.2324302618443Q823.705457989627 380.8453333806711 822.4700428347809 382.3209681489595L822.4700428347809 382.3209681489595Q813.341697523974 395.1898760119393 804.6937914400514 400.2344878942274Q796.045885356129 405.3134168641501 788.3931748136102 405.3134168641501L788.3931748136102 405.3134168641501Q770.857143032323 405.3134168641501 770.3423867178038 371.44245136878715L770.3423867178038 371.44245136878715Q768.6265323360732 375.42323353440224 763.7878229795928 380.46784541669035Q758.983430710747 385.5467743866131 751.5709397816706 391.9640697742857L751.5709397816706 391.9640697742857Q735.750762382114 405.5536364775924 728.3382714530377 405.5536364775924ZM734.515347227268 396.90573039366996L734.515347227268 396.90573039366996Q741.6876185429021 396.90573039366996 752.5661353230744 386.0272136134977L752.5661353230744 386.0272136134977Q756.7528200144972 381.8405289220749 760.0815775150546 377.75679549355596Q763.4446521032467 373.673062065037 766.6361412532657 369.24615776017197L766.6361412532657 369.24615776017197Q769.1069715629578 365.02515598111455 771.0973626457654 361.2159592536725Q773.0534366409383 357.37244543859583 774.2888517957844 353.6661999740577L774.2888517957844 353.6661999740577Q773.3279733420152 353.42598036061537 772.0925581871692 353.2887120100769Q770.857143032323 353.18576074717305 769.1069715629578 353.18576074717305L769.1069715629578 353.18576074717305Q746.6292791622864 353.18576074717305 732.7994928455373 378.1342834575367L732.7994928455373 378.1342834575367Q728.57849106648 385.0320180720939 728.57849106648 390.7286546194396L728.57849106648 390.7286546194396Q728.57849106648 396.90573039366996 734.515347227268 396.90573039366996ZM844.2270763951256 329.1981164905786L844.2270763951256 329.1981164905786Q841.2758068585489 329.1981164905786 838.8049765488566 326.48706656744423Q836.3341462391646 323.7760166443098 836.3341462391646 320.7904300200985L836.3341462391646 320.7904300200985Q836.3341462391646 313.89269540554125 843.9868567816833 313.89269540554125L843.9868567816833 313.89269540554125Q851.3993477107597 313.89269540554125 851.3993477107597 321.0649667211753L851.3993477107597 321.0649667211753Q851.3993477107597 329.1981164905786 844.2270763951256 329.1981164905786ZM841.0012701574719 406.3086124055539L841.0012701574719 406.3086124055539Q832.6279007746264 406.3086124055539 827.068532577819 400.4747075076697Q821.5091643810118 394.6751196974201 821.5091643810118 383.55638330380555L821.5091643810118 383.55638330380555Q821.5091643810118 369.9668166004988 828.9216553100882 355.8968106703075L828.9216553100882 355.8968106703075Q831.6327052332226 350.7149304374809 838.2902202343375 350.7149304374809L838.2902202343375 350.7149304374809Q842.236685312318 350.7149304374809 842.236685312318 353.18576074717305L842.236685312318 353.18576074717305Q842.236685312318 353.90641958749995 841.5160264719912 355.3820543557883L841.5160264719912 355.3820543557883Q832.8681203880686 371.95720768330636 832.8681203880686 383.7966029172478L832.8681203880686 383.7966029172478Q832.8681203880686 392.4445090011703 835.9566582751838 396.42529116678537Q839.045196162299 400.37175624476583 844.4672960085678 400.37175624476583L844.4672960085678 400.37175624476583Q853.1152020924902 400.37175624476583 861.7631081764127 393.81719250655476Q870.4110142603353 387.2626287683437 878.5784811173731 377.8940638440944L878.5784811173731 377.8940638440944Q879.2991399577 376.6586486892483 880.809091813623 376.6586486892483L880.809091813623 376.6586486892483Q881.7699702673921 376.6586486892483 881.7699702673921 377.6195271430175L881.7699702673921 377.6195271430175Q881.7699702673921 378.37450307097896 880.9120430765267 379.7471865763635Q880.0541158856614 381.0855529941134 879.2991399577 382.3209681489595L879.2991399577 382.3209681489595Q876.107650807681 386.5419699280169 871.6464294151814 390.96887423288194Q867.2195251103162 395.43009562538157 861.2826689495281 399.3765607033621L861.2826689495281 399.3765607033621Q856.5812279435862 402.6023669410157 851.2620793602213 404.4554896732848Q845.9429307768562 406.3086124055539 841.0012701574719 406.3086124055539ZM897.3499280535065 402.3278302399388L897.3499280535065 402.3278302399388Q878.0637248028539 402.3278302399388 878.0637248028539 387.2626287683437L878.0637248028539 387.2626287683437Q878.0637248028539 371.95720768330636 893.8839022024105 359.36283652140344L893.8839022024105 359.36283652140344Q908.9491036740056 347.0086849729428 924.2888418466775 347.0086849729428L924.2888418466775 347.0086849729428Q932.4219916160808 347.0086849729428 938.1186281634266 350.95515005092324L938.1186281634266 350.95515005092324Q945.531119092503 355.8968106703075 946.0115583193875 369.24615776017197L946.0115583193875 369.24615776017197Q970.7198614163088 345.01829389013517 983.828988892731 345.01829389013517L983.828988892731 345.01829389013517Q989.5256254400769 345.01829389013517 993.231870904615 350.20017412296176Q996.9381163691531 355.3820543557883 996.9381163691531 361.31891051657635L996.9381163691531 361.31891051657635Q996.9381163691531 373.9132816784793 982.1131345110003 386.5419699280169L982.1131345110003 386.5419699280169Q967.7685918797321 399.1363410899198 954.6594644033099 399.1363410899198L954.6594644033099 399.1363410899198Q939.1138237048303 399.1363410899198 939.1138237048303 382.08074853551716L939.1138237048303 382.08074853551716Q938.1186281634266 383.07594407692096 936.6429933951382 384.0711396183247Q935.1673586268499 385.0320180720939 933.4171871574846 386.0272136134977L933.4171871574846 386.0272136134977Q926.5194525429274 390.7286546194396 922.2984507638699 393.4397045425741Q918.1117660724473 396.1507544657085 916.6361313041589 396.90573039366996L916.6361313041589 396.90573039366996Q906.7528100653903 402.3278302399388 897.3499280535065 402.3278302399388ZM959.6011250226942 393.67992415601634L959.6011250226942 393.67992415601634Q967.2881526528475 393.67992415601634 976.4164979636547 387.502848381786L976.4164979636547 387.502848381786Q980.8777193561542 384.5515788452093 984.3094281196156 381.3257726075557Q987.7754539707115 378.1342834575367 989.5256254400769 374.66825760644076L989.5256254400769 374.66825760644076Q991.9964557497689 371.2022317553449 991.9964557497689 364.3044971407877L991.9964557497689 364.3044971407877Q991.9964557497689 350.4403937364041 979.1275478867891 350.4403937364041L979.1275478867891 350.4403937364041Q973.4652284270779 350.4403937364041 961.5915161055018 360.83847128969177L961.5915161055018 360.83847128969177L946.0115583193875 375.9036727612868Q946.5263146339067 393.67992415601634 959.6011250226942 393.67992415601634ZM893.8839022024105 399.1363410899198L893.8839022024105 399.1363410899198Q904.5221993691405 399.1363410899198 918.5922052993318 391.7238501608434L918.5922052993318 391.7238501608434Q930.4659176209079 384.79179845865156 939.3540433182726 375.9036727612868L939.3540433182726 375.9036727612868Q939.594262931715 374.1878183795562 939.594262931715 372.8151348741717Q939.594262931715 371.44245136878715 939.594262931715 370.481572915018L939.594262931715 370.481572915018Q939.594262931715 359.0882998203265 933.4171871574846 355.141834742346L933.4171871574846 355.141834742346Q927.9950873112158 352.1905652057693 921.5777919235431 352.1905652057693L921.5777919235431 352.1905652057693Q912.4151295251015 352.1905652057693 902.7720278997753 358.1274213665573Q893.1632433620836 364.02996043971075 887.9470460416225 372.6778665236332L887.9470460416225 372.6778665236332Q881.5297506539498 382.83572446347864 881.5297506539498 389.49323946459356L881.5297506539498 389.49323946459356Q881.5297506539498 399.1363410899198 893.8839022024105 399.1363410899198Z " fill="#c3aef5" transform="matrix(0.8776873908649514,0,0,0.8776873908649514,0,9.2145991699077)"/></g></svg>