<svg xmlns="http://www.w3.org/2000/svg" version="1.1" xmlns:xlink="http://www.w3.org/1999/xlink" xmlns:svgjs="http://svgjs.dev/svgjs" width="100%" height="100%" viewBox="0 0 1000 600"><rect width="1000" height="600" x="0" y="0" fill="#2c2936"/><g><rect width="333.3333333333333" height="333.3333333333333" rx="13.333333333333334" ry="13.333333333333334" y="181.66388769139883" fill="#c3aef5" transform="matrix(0.7839859116055967,0,0,0.7839859116055967,0,26.91377230714903)" x="159.44163513183594"/><path d="M255.17708158034281 423.3305523733633L255.17708158034281 423.3305523733633Q234.28903911303794 423.3305523733633 218.4286396217345 413.8454115011132Q202.56824013043106 404.3084392579765 193.60141296704708 387.8778946869203Q184.68641717454972 371.4991814867508 184.68641717454972 350.19648805235295L184.68641717454972 350.19648805235295Q184.68641717454972 315.52130092920913 203.1383852101838 294.4259329783579Q221.59035324581785 273.3305650275066 252.94833263221844 273.3305650275066L252.94833263221844 273.3305650275066Q269.3788772032746 273.3305650275066 281.8702375869483 280.0686432427662Q294.36159797062186 286.75489008713924 304.4687152935113 297.5876466024413Q314.52400124551417 308.42040311774326 323.12800881269186 321.4819085811696L323.12800881269186 321.4819085811696Q334.32358492420013 300.95668571007104 354.278662715546 287.11770968334554Q374.2337405068918 273.3305650275066 396.9877123261147 273.3305650275066L396.9877123261147 273.3305650275066Q417.92758616430615 273.3305650275066 433.78798565560965 282.8675372706433Q449.64838514691303 292.3526781428934 458.5633809394104 308.7832227139496Q467.5302081027944 325.2137672850057 467.5302081027944 346.46462934851684L467.5302081027944 346.46462934851684Q467.5302081027944 369.21860116773973 459.1335260191631 386.4266163020952Q450.73684393553185 403.5828000655639 435.44658952398123 413.48259190490694Q420.1563351124305 423.3305523733633 399.99393183753824 423.3305523733633L399.99393183753824 423.3305523733633Q383.20056767027575 423.3305523733633 370.5018818030557 416.64430552899023Q357.8031959358356 409.9062273137306 347.7479099838328 398.91797668576874Q337.69262403182995 387.8778946869203 329.08861646465226 374.81638922349396L329.08861646465226 374.81638922349396Q317.893040353144 395.3416120945925 297.93796256179814 409.3360822339779Q277.9828847704523 423.3305523733633 255.17708158034281 423.3305523733633ZM209.66913794189696 348.6933782966412L209.66913794189696 348.6933782966412Q209.66913794189696 371.4991814867508 222.9379688888698 385.49365162613617Q236.15496846495597 399.48812176552156 258.5461206879726 399.48812176552156L258.5461206879726 399.48812176552156Q276.11695541853425 399.48812176552156 292.13284902249757 388.65536525021946Q308.2005739973474 377.8226087349175 319.39615010885575 359.5261348119433L319.39615010885575 359.5261348119433Q310.0665033492655 343.87306080418625 300.3740369934689 329.51577106859463Q290.6297392667858 315.1066499621163 279.0713435590712 305.98432868607244Q267.51294785135656 296.8620074100287 252.22269343980588 296.8620074100287L252.22269343980588 296.8620074100287Q232.0602901649136 296.8620074100287 220.8647140534053 311.01197166207396Q209.66913794189696 325.2137672850057 209.66913794189696 348.6933782966412ZM394.0333241855778 297.22482700623493L394.0333241855778 297.22482700623493Q376.0996698588099 297.22482700623493 360.2392703675064 308.057583521537Q344.378870876203 318.8385086659524 332.8204751684884 336.7721629927204L332.8204751684884 336.7721629927204Q342.51294152428494 352.4252370004773 352.04991376742163 366.9898522196155Q361.53505463967167 381.5544674387536 373.14528171827294 390.67678871479745Q384.7036774259875 399.8509413617278 400.35675143374453 399.8509413617278L400.35675143374453 399.8509413617278Q420.1563351124305 399.8509413617278 431.3519112239388 385.49365162613617Q442.54748733544716 371.08453051965785 442.54748733544716 347.60491950802236L442.54748733544716 347.60491950802236Q442.54748733544716 324.85094768879947 429.4859818720208 311.01197166207396Q416.4244764085944 297.22482700623493 394.0333241855778 297.22482700623493Z " fill="#2c2936" transform="matrix(0.7839859116055967,0,0,0.7839859116055967,0,26.91377230714903)"/><path d="M654.8959038553451 322.06802448976134L665.9244963779718 322.06802448976134L665.9244963779718 421.7152569290513L651.080456442214 421.7152569290513L651.6931560268044 398.2655728279103Q646.06745984102 409.8790149540098 636.6541662232223 416.5908604033863Q627.2408726054247 423.33055583388045 615.2096807625591 423.33055583388045L615.2096807625591 423.33055583388045Q602.5657893351031 423.33055583388045 593.9322951886022 417.39850985580085Q585.3266510232191 411.49431385883906 580.7035541576736 400.9670209963316Q576.1083072732457 390.43972813382413 576.1083072732457 376.59828751830514L576.1083072732457 376.59828751830514Q576.1083072732457 359.94399880989386 582.1239031946785 347.2165574390847Q588.1394991161114 334.4891160682754 598.9452917897962 327.3595209021328Q609.7789344445989 320.25777571710796 624.0102747957662 320.25777571710796L624.0102747957662 320.25777571710796Q634.0362679981544 320.25777571710796 641.6671628244163 324.8530226015358Q649.2980576506784 329.4761194670814 652.8907052148675 336.6892645765772L652.8907052148675 336.6892645765772L654.8959038553451 322.06802448976134ZM624.4280245125325 333.4865167480366L624.4280245125325 333.4865167480366Q609.3890347089505 333.4865167480366 600.3656408268012 344.90500900631184Q591.342246944652 356.3513512457048 591.342246944652 375.4007383302421L591.342246944652 375.4007383302421Q591.342246944652 391.63727732188715 598.2490422618525 400.7720711285074Q605.1836875601709 409.8790149540098 617.2148794030367 409.8790149540098L617.2148794030367 409.8790149540098Q627.0180727564828 409.8790149540098 634.8439174505689 404.0583689004012Q642.6697621446551 398.2655728279103 647.0700591612588 388.0167797765804Q651.4982061589801 377.79583670636816 651.4982061589801 364.56709567543953L651.4982061589801 364.56709567543953Q651.4982061589801 350.14080545644777 644.2850610494843 341.81366110224224Q637.0440659588708 333.4865167480366 624.4280245125325 333.4865167480366ZM725.8855057244758 423.33055583388045L725.8855057244758 423.33055583388045Q710.8465159208938 423.33055583388045 702.8257213589834 412.8868129147262Q694.8049267970729 402.47091997668974 694.8049267970729 384.0063824956252L694.8049267970729 384.0063824956252L695.4176263816632 322.06802448976134L710.0388664684791 322.06802448976134L709.4540168650066 382.2239837040895Q709.2312170160645 395.2577748671939 714.0492637494344 402.47091997668974Q718.8673104828042 409.68406508618557 729.2832034208407 409.68406508618557L729.2832034208407 409.68406508618557Q739.5319964721706 409.68406508618557 747.3299911851391 401.46832065645094Q755.1558358792254 393.2525762267163 759.6675328202999 374.0917892177081Q764.1792297613745 354.93100220869985 764.3741796291988 322.06802448976134L764.3741796291988 322.06802448976134L778.410570112542 322.06802448976134L778.410570112542 421.7152569290513L763.5943801579019 421.7152569290513L764.791929345965 389.0193790968192Q759.1662331601806 406.67626712546917 748.9452900899682 415.0034114796748Q738.724347019756 423.33055583388045 725.8855057244758 423.33055583388045ZM879.2832017210127 273.33055753370843L893.9322917889463 273.33055753370843L893.9322917889463 421.7152569290513L879.0882518531885 421.7152569290513L879.6731014566611 398.2655728279103Q874.0752552519945 409.8790149540098 864.6341116530791 416.5908604033863Q855.2208180352814 423.33055583388045 843.1896261924157 423.33055583388045L843.1896261924157 423.33055583388045Q830.5457347649598 423.33055583388045 821.9400905995767 417.39850985580085Q813.3065964530758 411.49431385883906 808.7113495686481 400.9670209963316Q804.0882527031024 390.43972813382413 804.0882527031024 376.59828751830514L804.0882527031024 376.59828751830514Q804.0882527031024 359.94399880989386 810.1038486245352 347.2165574390847Q816.1194445459681 334.4891160682754 826.9530872007707 327.3595209021328Q837.7867298555734 320.25777571710796 852.0180702067407 320.25777571710796L852.0180702067407 320.25777571710796Q861.04146408889 320.25777571710796 868.3660091228569 324.07322313023894Q875.6627041757058 327.86082056225223 879.6731014566611 334.4891160682754L879.6731014566611 334.4891160682754L879.2832017210127 322.06802448976134L879.2832017210127 273.33055753370843ZM852.4079699423892 333.4865167480366L852.4079699423892 333.4865167480366Q837.3689801388072 333.4865167480366 828.345586256658 344.90500900631184Q819.3221923745087 356.3513512457048 819.3221923745087 375.4007383302421L819.3221923745087 375.4007383302421Q819.3221923745087 391.63727732188715 826.256837672827 400.7720711285074Q833.1636329900277 409.8790149540098 845.1948248328933 409.8790149540098L845.1948248328933 409.8790149540098Q855.0258681674572 409.8790149540098 862.8517128615434 404.0583689004012Q870.6497075745119 398.2655728279103 875.0778545722333 388.0167797765804Q879.4781515888369 377.79583670636816 879.4781515888369 364.56709567543953L879.4781515888369 364.56709567543953Q879.4781515888369 350.14080545644777 872.2650064793411 341.81366110224224Q865.0518613698453 333.4865167480366 852.4079699423892 333.4865167480366ZM924.0102713961105 322.06802448976134L938.4365616151019 322.06802448976134L938.4365616151019 421.7152569290513L924.0102713961105 421.7152569290513L924.0102713961105 322.06802448976134ZM931.6133162412546 299.39813985991725L931.6133162412546 299.39813985991725Q926.7952695078849 299.39813985991725 924.2052212639346 296.39034189920085Q921.5873230388665 293.38254393848445 921.5873230388665 289.37214665752924L921.5873230388665 289.37214665752924Q921.5873230388665 285.36174937657404 924.2887712072879 282.35395141585764Q927.0180693568268 279.34615345514123 931.6133162412546 279.34615345514123L931.6133162412546 279.34615345514123Q936.2364131068002 279.34615345514123 938.9378612752214 282.35395141585764Q941.6393094436428 285.36174937657404 941.6393094436428 289.37214665752924L941.6393094436428 289.37214665752924Q941.6393094436428 293.38254393848445 938.9378612752214 296.39034189920085Q936.2364131068002 299.39813985991725 931.6133162412546 299.39813985991725ZM1001.9902185257952 412.0791634623116L1001.9902185257952 412.0791634623116Q990.7666761353441 412.0791634623116 982.2445819133143 406.9826169177644Q973.7224876912844 401.8582203920994 968.9044409579146 393.0297763777744Q964.1142442056625 384.2291823445671 964.1142442056625 372.78284010517416L964.1142442056625 372.78284010517416Q964.1142442056625 354.15120273740297 974.0288374835795 342.81626042248104Q983.9434307614966 331.481318107559 1000.7926693377321 331.481318107559L1000.7926693377321 331.481318107559Q1009.6211133520571 331.481318107559 1016.3329588014335 335.10181565286575Q1023.04480425081 338.6944632170548 1028.4755505687701 344.5151092706634Q1033.8784469056125 350.335755324272 1038.5015437711581 357.3539505659436L1038.5015437711581 357.3539505659436Q1044.517139692591 346.3253580433168 1055.2393824229227 338.88941308487904Q1065.9616251532543 331.481318107559 1078.187766863944 331.481318107559L1078.187766863944 331.481318107559Q1089.4391592355128 331.481318107559 1097.9612534575426 336.605714633224Q1106.4833476795725 341.7022611777712 1111.2735444318246 350.5307051920962Q1116.0915911651946 359.3591492064213 1116.0915911651946 370.77764146469656L1116.0915911651946 370.77764146469656Q1116.0915911651946 383.0037831753864 1111.57989422412 392.2499769064775Q1107.0681972830453 401.46832065645094 1098.8524528533105 406.7876670499402Q1090.6367084235758 412.0791634623116 1079.8030657687734 412.0791634623116L1079.8030657687734 412.0791634623116Q1070.779671886624 412.0791634623116 1063.9564265127767 408.48651589812255Q1057.1331811389293 404.8660183528158 1051.7302848020868 398.961822355854Q1046.3273884652444 393.0297763777744 1041.7042915996988 386.0115811361028L1041.7042915996988 386.0115811361028Q1035.688695678266 397.0401736587296 1024.9664529479344 404.55966856052066Q1014.2442102176026 412.0791634623116 1001.9902185257952 412.0791634623116ZM977.5379351044155 371.9751906527596L977.5379351044155 371.9751906527596Q977.5379351044155 384.2291823445671 984.667530270558 391.74867724635817Q991.7692754555828 399.2681721481491 1003.8004672984484 399.2681721481491L1003.8004672984484 399.2681721481491Q1013.2416108973639 399.2681721481491 1021.8472550627471 393.44752609454054Q1030.4807492092477 387.62688004093195 1036.4963451306805 377.79583670636816L1036.4963451306805 377.79583670636816Q1031.4833485294866 369.3851424088093 1026.2754020604684 361.67069763919403Q1021.0396056103324 353.92840288846105 1014.8290598210754 349.02680621173806Q1008.6185140318182 344.12520953501496 1000.4027696020836 344.12520953501496L1000.4027696020836 344.12520953501496Q989.569126947281 344.12520953501496 983.5535310258483 351.7282543801592Q977.5379351044155 359.3591492064213 977.5379351044155 371.9751906527596ZM1076.6003179402328 344.3201594028392L1076.6003179402328 344.3201594028392Q1066.964224473493 344.3201594028392 1058.4421302514634 350.14080545644777Q1049.9200360294335 355.93360152893865 1043.7094902401764 365.56969499567833L1043.7094902401764 365.56969499567833Q1048.9174367091946 373.9803892932372 1054.0418332348597 381.80623398732337Q1059.138379779407 389.63207868140955 1065.3767755497815 394.53367535813254Q1071.5873213390387 399.46312201597334 1079.9980156365975 399.46312201597334L1079.9980156365975 399.46312201597334Q1090.6367084235758 399.46312201597334 1096.6523043450088 391.74867724635817Q1102.6679002664414 384.0063824956252 1102.6679002664414 371.3903410492869L1102.6679002664414 371.3903410492869Q1102.6679002664414 359.1641993385971 1095.64970502477 351.7282543801592Q1088.6315097830984 344.3201594028392 1076.6003179402328 344.3201594028392Z " fill="#c3aef5" transform="matrix(0.7839859116055967,0,0,0.7839859116055967,0,26.91377230714903)"/></g></svg>