<svg xmlns="http://www.w3.org/2000/svg" version="1.1" xmlns:xlink="http://www.w3.org/1999/xlink" xmlns:svgjs="http://svgjs.dev/svgjs" width="100%" height="100%" viewBox="0 0 1000 600"><rect width="1000" height="600" x="0" y="0" fill="#2c2936"/><g><rect width="333.3333333333333" height="333.3333333333333" rx="13.333333333333334" ry="13.333333333333334" y="193.15958267344956" fill="#c3aef5" transform="matrix(0.731261990572864,0,0,0.7312619905728639,0,36.872726150840464)" x="170.93736267089844"/><path d="M268.95833688868737 434.8262437062175L268.95833688868737 434.8262437062175Q249.0096851613347 434.8262437062175 237.91854288821196 418.18953029653346Q226.82740061508926 401.5528168868493 226.82740061508926 373.82496120404255L226.82740061508926 373.82496120404255Q226.82740061508926 347.2139219306821 235.29980096261355 327.1112265606472Q243.7336903994673 307.0085311906123 258.1752819009291 295.9173889174896Q272.57836249172044 284.82624664436685 290.6014686855449 284.82624664436685L290.6014686855449 284.82624664436685Q309.47181491412175 284.82624664436685 323.4512754875368 303.3885055875792Q337.4692469716225 321.98927544146204 345.2099400164061 356.341007759606L345.2099400164061 356.341007759606Q345.7876036764645 357.7274005437464 346.2112236938408 359.42188061325123Q346.5963328005464 361.07784977208553 346.90442008591094 362.4642425562258L346.90442008591094 362.4642425562258L331.6540994603672 381.8737415341907Q331.6540994603672 381.6041651594967 331.34601217500267 381.1805451421204Q331.0764358003087 380.75692512474427 331.0764358003087 380.2177723753564L331.0764358003087 380.2177723753564Q326.91725744788766 360.2306097373331 321.9493499713848 347.7530746800701Q316.94293158421135 335.27553962280695 311.12778407295605 328.6131520767992Q305.31263656170074 321.98927544146204 298.76578174770464 319.4860662478753Q292.2574378443792 316.9828570542886 285.0558975489835 316.9828570542886L285.0558975489835 316.9828570542886Q270.0751532981337 316.9828570542886 260.2548710771397 329.99954486093964Q250.39607794547504 343.0547435782611 250.39607794547504 364.96745174981265L250.39607794547504 364.96745174981265Q250.39607794547504 378.52329230585144 255.94164908203638 387.84293268812826Q261.4872202185977 397.1240621597344 272.84793886641444 397.1240621597344L272.84793886641444 397.1240621597344Q281.16629557125646 397.1240621597344 289.63869591878074 391.0008273631146Q298.0725853556345 384.9161034771653 306.69902934584104 374.94177761348897Q315.28696242537706 364.96745174981265 324.2985155222892 353.0290694419375Q333.3100686192015 341.09068713406225 342.74524173348993 329.0367720941755Q352.14190393710777 316.9828570542886 362.27027344346635 307.0085311906123Q372.398642949825 297.03420532693593 383.3357415802654 290.91097053031615Q394.31135112137645 284.82624664436685 406.211222518581 284.82624664436685L406.211222518581 284.82624664436685Q426.1983851566043 284.82624664436685 437.28952742972695 301.3089164113686Q448.3806697028497 317.83009708904103 448.3806697028497 344.9802891117894L448.3806697028497 344.9802891117894Q448.3806697028497 371.5913283851497 439.9082693553254 391.848067397867Q431.47437991847164 412.10480641058416 417.0327884170098 423.4655250584009Q402.62970782621846 434.8262437062175 384.6066016323941 434.8262437062175L384.6066016323941 434.8262437062175Q365.7362554038172 434.8262437062175 351.60275118771983 415.95589747764063Q337.4692469716225 397.1240621597344 330.2677066762268 362.7338189309198L330.2677066762268 362.7338189309198L344.13163451763023 338.8955652258401Q348.29081287005124 358.8442169531928 353.2587203465541 371.32175201045584Q358.2651387337276 383.79928706771886 364.2343298876651 390.4616746137266Q370.16501013093216 397.1240621597344 376.71186494492827 399.62727135332113Q383.2202088482537 402.0919696362373 390.15217276895544 402.0919696362373L390.15217276895544 402.0919696362373Q404.8248297344407 402.0919696362373 414.8376665087876 389.0752818295863Q424.8119923724639 376.0585940229354 424.8119923724639 354.4154622260778L424.8119923724639 354.4154622260778Q424.8119923724639 340.55153438467437 419.3819539679142 331.38593764507993Q413.99042647403513 322.25885181615604 402.62970782621846 322.25885181615604L402.62970782621846 322.25885181615604Q392.9249583372361 322.25885181615604 383.91340524032387 328.34357570210534Q374.9018521434117 334.4668104987252 366.1598754211934 344.4411363624015Q357.4178986989752 354.4154622260778 348.8299656194391 366.4693772659647Q340.2420325399032 378.52329230585144 331.0764358003087 390.61571825640885Q321.9493499713848 402.66963329629573 312.24460048240246 412.64395915997204Q302.53985099342003 422.61828502364835 291.833817827003 428.7415198202682Q281.16629557125646 434.8262437062175 268.95833688868737 434.8262437062175Z " fill="#2c2936" transform="matrix(0.731261990572864,0,0,0.7312619905728639,0,36.872726150840464)"/><path d="M620.0438239207322 434.82624940875576L620.0438239207322 434.82624940875576Q610.4182876244408 434.82624940875576 603.1187163971761 429.65468877655803Q595.7944008606664 424.4831281443604 591.7115898352472 415.0555463220288Q587.6040345005831 405.60322019045213 587.6040345005831 392.9588781662751L587.6040345005831 392.9588781662751Q587.6040345005831 378.16178123778604 592.8745723697607 365.6164164505889Q598.1203659296932 353.04630735414673 607.37473758731 343.51974829483515Q616.653853554172 333.9931892355237 629.1249854136342 328.7226513663462Q641.5961172730965 323.4768578064136 656.0220495629111 323.4768578064136L656.0220495629111 323.4768578064136Q664.2124159229945 323.4768578064136 672.7739469217524 324.9120277426216L672.7739469217524 324.9120277426216Q673.8379522192859 326.693618008259 674.3823270226751 328.8216286033261Q674.9019575168193 330.949639198393 674.9019575168193 333.2756042674197L674.9019575168193 333.2756042674197Q659.4120199294714 333.2756042674197 647.2873083994384 337.7295799315134Q635.1873411786506 342.1835555956071 626.7247874168727 350.29968902795554Q618.2622336550946 358.3910781510591 613.8824909187358 369.08061974488396Q609.5274924916221 379.7701613387088 609.5274924916221 392.41450336288585L609.5274924916221 392.41450336288585Q609.5274924916221 404.5392148929187 614.50109864986 411.3191556260391Q619.4994491173429 418.0743520499145 628.580610610245 418.0743520499145L628.580610610245 418.0743520499145Q645.1592978043716 418.0743520499145 655.8488393981963 396.86847902697957Q666.5383809920212 375.6873503132896 671.8831517889337 333.2756042674197L671.8831517889337 333.2756042674197Q673.8379522192859 330.77642903367826 676.9557351841514 329.3660034067152Q680.073518149017 327.9308334705073 683.2902783508625 327.9308334705073L683.2902783508625 327.9308334705073Q687.7442540149561 327.9308334705073 690.3176621764326 329.98461113783935Q692.8910703379088 332.0383888051715 692.8910703379088 335.947989665876L692.8910703379088 335.947989665876Q692.8910703379088 341.8371352661776 690.763059742842 350.8193195220998Q688.6350491477749 359.8262480872671 685.9626637493186 371.03542017523614Q683.2902783508625 382.26933657245024 681.1375234465505 394.9136785966274Q679.0095128514836 407.5580206208044 679.0095128514836 420.57352728365595L679.0095128514836 420.57352728365595Q679.0095128514836 426.8090932133871 682.201528744084 429.8278989412728L682.201528744084 429.8278989412728Q679.3559331809131 432.5002843397291 676.3371274530273 433.66326687424237Q673.2935774158966 434.82624940875576 670.2747716880109 434.82624940875576L670.2747716880109 434.82624940875576Q664.2124159229945 434.82624940875576 661.0204000303941 431.08985871276604Q657.8036398285485 427.35346801677633 657.8036398285485 420.22710695422643L657.8036398285485 420.22710695422643Q657.8036398285485 417.90114188519976 658.150060157978 415.1297792497637Q658.5212247966526 412.38316092357263 659.0408552907968 409.5375653604016L659.0408552907968 409.5375653604016L657.2592650251593 408.6467702275829Q650.8504889307135 421.1179020870452 641.1507197066871 427.9720757479005Q631.426206173416 434.82624940875576 620.0438239207322 434.82624940875576ZM752.9455088754387 434.82624940875576L752.9455088754387 434.82624940875576Q738.3216221116645 434.82624940875576 731.3932155230743 427.69988834620585Q724.4400646252391 420.57352728365595 724.4400646252391 405.9743848291266L724.4400646252391 405.9743848291266Q724.4400646252391 398.1304387984728 725.7762573244672 389.5689077997149Q727.1124500236954 381.03212111020207 728.8940402893329 372.47059011144415Q730.6756305549702 363.90905911268624 732.0118232541984 356.1640903190123Q733.3480159534265 348.41912152533826 733.3480159534265 342.01034543089236L733.3480159534265 342.01034543089236Q733.3480159534265 338.0760002609429 732.8036411500373 334.61179696664783Q732.2840106558931 331.14759367235274 731.3932155230743 328.27725379993683L731.3932155230743 328.27725379993683Q734.9563960543492 326.1492432048698 738.8659969150538 324.81305050564174Q742.7755977757581 323.4768578064136 745.2747730094995 323.4768578064136L745.2747730094995 323.4768578064136Q750.4463336416973 323.4768578064136 752.8465316384588 326.1492432048698Q755.2467296352204 328.8216286033261 755.2467296352204 335.0571945330572L755.2467296352204 335.0571945330572Q755.2467296352204 338.9667953937617 754.1084914099522 345.6477588899022Q752.9455088754387 352.3287223860427 751.337128774516 360.3458785814113Q749.7287486735934 368.36303477677995 748.1203685726707 376.3801909721486Q746.5367327809929 384.3973471675173 745.3737502464794 391.0040777359229Q744.2107677119661 397.5860639950836 744.2107677119661 401.14924452635853L744.2107677119661 401.14924452635853Q744.2107677119661 411.3191556260391 748.5657661390799 416.46597194899175Q752.9455088754387 421.6375325811895 761.1358752355222 421.6375325811895L761.1358752355222 421.6375325811895Q771.6522066646321 421.6375325811895 780.5601579928195 413.8925637875154Q789.468109321007 406.1475949938414 794.441715479245 392.6124578368456L794.441715479245 392.6124578368456L793.2045000169967 419.6827321508372L786.9689340872656 416.46597194899175Q783.2325433912758 421.81074274590424 777.5166079556889 426.0172753175483Q771.825416829347 430.1990635799473 765.416640734901 432.5002843397291Q759.0078646404552 434.82624940875576 752.9455088754387 434.82624940875576ZM800.6772814089761 434.82624940875576L800.6772814089761 434.82624940875576Q794.6396699532047 434.82624940875576 791.6950971530539 430.71869407409156Q788.7505243529031 426.6358830486723 788.7505243529031 417.90114188519976L788.7505243529031 417.90114188519976Q788.7505243529031 413.1007458916765 790.2599272168459 403.8216299248147Q791.7693300807887 394.5672582671979 794.9860902826342 379.25053084456454Q798.2028504844795 363.90905911268624 803.3496668074324 341.63918079221787L803.3496668074324 341.63918079221787L796.0500955801676 330.949639198393Q798.5492708139091 328.8216286033261 802.0134741082043 327.1390155746684Q805.5024217117443 325.4316582367659 809.238812407734 324.4666301762122Q812.9752031037237 323.4768578064136 816.1919633055691 323.4768578064136L816.1919633055691 323.4768578064136Q821.5367341024814 323.4768578064136 823.7637219345283 325.7038456384605Q825.9907097665753 327.9308334705073 825.9907097665753 333.2756042674197L825.9907097665753 333.2756042674197Q825.9907097665753 334.51281972966797 824.827727232062 339.41219296017107Q823.6647446975485 344.31156619067406 821.883154431911 351.88332481963334Q820.1015641662736 359.45508344859263 818.0477864989414 368.4620120137598Q816.0187531408544 377.4689405789271 814.138185638237 386.8965224012587Q812.2576181356196 396.3488485328353 811.1193799103512 404.9846124593281Q809.9563973758379 413.6203763858208 809.9563973758379 420.57352728365595L809.9563973758379 420.57352728365595Q809.9563973758379 427.35346801677633 812.9752031037237 430.0258534152325L812.9752031037237 430.0258534152325Q807.6304323068111 434.82624940875576 800.6772814089761 434.82624940875576ZM885.3028190267562 434.82624940875576L885.3028190267562 434.82624940875576Q875.7020270397097 434.82624940875576 868.3777115032001 429.65468877655803Q861.0781402759355 424.4831281443604 856.9953292505163 415.0555463220288Q852.8877739158522 405.60322019045213 852.8877739158522 392.9588781662751L852.8877739158522 392.9588781662751Q852.8877739158522 379.25053084456454 858.1335674757847 367.3980067162263Q863.4041053449623 355.54548258788816 872.658477002579 346.7365084966807Q881.9375929694409 337.90279009622816 894.4087248289034 332.92918393799016Q906.8798566883656 327.9308334705073 921.3057889781801 327.9308334705073L921.3057889781801 327.9308334705073Q930.9313252744714 327.9308334705073 938.0576863370213 329.3660034067152L938.0576863370213 329.3660034067152Q939.121691634555 331.14759367235274 939.6413221286991 333.1766270304398Q940.1856969320884 335.230404697772 940.1856969320884 337.7295799315134L940.1856969320884 337.7295799315134Q925.0421796741698 337.7295799315134 913.0164453811169 341.73815802919773Q900.990711088064 345.74673612688207 892.4291800893061 353.04630735414673Q883.8923933997933 360.3458785814113 879.3394404987196 370.3425795163771Q874.811231906891 380.31453614209806 874.811231906891 392.41450336288585L874.811231906891 392.41450336288585Q874.811231906891 404.5392148929187 879.784838065129 411.3191556260391Q884.7831885326118 418.0743520499145 893.8643500255141 418.0743520499145L893.8643500255141 418.0743520499145Q900.2731261199599 418.0743520499145 906.6819022144059 414.23898411694495Q913.1154226180968 410.42836049322034 918.6334035797238 403.1040449567107Q924.151384541351 395.80447372944604 927.7145650726261 385.8325171037252L927.7145650726261 385.8325171037252L926.1061849717034 410.05719585454585L922.5430044404284 408.6467702275829Q916.1342283459826 421.1179020870452 906.4344591219563 427.9720757479005Q896.7099455886851 434.82624940875576 885.3028190267562 434.82624940875576ZM934.840926135176 434.82624940875576L934.840926135176 434.82624940875576Q929.3229451735488 434.82624940875576 926.4773496103778 431.36204611446067Q923.6070097379618 427.8730985109206 923.6070097379618 420.7467374483707L923.6070097379618 420.7467374483707Q923.6070097379618 417.55472155577024 924.4235719430458 410.42836049322034Q925.2153898388844 403.30199943067043 926.6505597750927 393.50325296966435Q928.0609854020556 383.70450650865826 929.8425756676929 372.3716128744643Q931.6241659333305 361.0634635495153 933.5047334359479 349.58210405985164Q935.3853009385653 338.0760002609429 937.2411241319376 327.5844131410778Q939.121691634555 317.0680817119677 940.5321172615179 308.87771535188426L940.5321172615179 308.87771535188426L932.712915540109 299.96976402369694Q937.1668912042026 296.406583492422 942.8580823305444 294.35280582508994Q948.5492734568866 292.2990281577578 953.2012035949399 292.2990281577578L953.2012035949399 292.2990281577578Q958.1748097531779 292.2990281577578 960.3275646574898 294.52601598980465Q962.4555752525569 296.7530038218515 962.4555752525569 302.0977746187639L962.4555752525569 302.0977746187639Q962.4555752525569 306.5517502828576 960.6739849869193 315.01430404463565Q958.8923947212818 323.4768578064136 956.2200093228257 335.0571945330572Q953.5476239243694 346.6375312597007 950.7762612889335 360.3458785814113Q948.0296429627422 374.0789702123669 946.2480526971049 388.95030006859076Q944.4664624314673 403.8216299248147 944.4664624314673 418.9651471827333L944.4664624314673 418.9651471827333Q944.4664624314673 422.1819073845787 945.4314904920209 425.2007131124644Q946.4212628618195 428.2442631495951 948.202853127457 429.8278989412728L948.202853127457 429.8278989412728Q945.5304677290007 432.15386401029957 942.2394745994204 433.4900567095276Q938.9484814698401 434.82624940875576 934.840926135176 434.82624940875576ZM1003.0857310327892 434.82624940875576L1003.0857310327892 434.82624940875576Q997.0233752677727 434.82624940875576 993.9798252306421 431.80744368087005Q990.9610195027565 428.7638936437394 990.9610195027565 422.1819073845787L990.9610195027565 422.1819073845787Q990.9610195027565 418.61872685330377 991.7528373985954 412.38316092357263Q992.5693996036791 406.1475949938414 994.3509898693167 396.52205869755005Q996.132580134954 386.8965224012587 999.0771529351048 372.91598767785354Q1001.9969814260107 358.93545295444835 1006.2777469253897 339.85759052658034L1006.2777469253897 339.85759052658034L998.4338008947359 330.949639198393Q1002.8877765588295 327.38645866711806 1008.5047347574366 325.4316582367659Q1014.1216929560437 323.4768578064136 1018.5756686201371 323.4768578064136L1018.5756686201371 323.4768578064136Q1023.7472292523348 323.4768578064136 1026.0484500121167 325.60486840148053Q1028.3744150811433 327.75762330579255 1028.3744150811433 333.2756042674197L1028.3744150811433 333.2756042674197Q1028.3744150811433 334.51281972966797 1027.21143254663 339.41219296017107Q1026.0484500121167 344.31156619067406 1024.1926268187442 351.88332481963334Q1022.312059316127 359.45508344859263 1020.2582816487948 368.4620120137598Q1018.2292482907078 377.4689405789271 1016.3486807880904 386.8965224012587Q1014.468113285473 396.3488485328353 1013.3298750602048 404.9846124593281Q1012.1668925256913 413.6203763858208 1012.1668925256913 420.57352728365595L1012.1668925256913 420.57352728365595Q1012.1668925256913 423.96349765021614 1012.9587104215302 426.26471840999784Q1013.775272626614 428.5906834790246 1015.3589084182918 430.0258534152325L1015.3589084182918 430.0258534152325Q1009.494507127235 434.82624940875576 1003.0857310327892 434.82624940875576ZM1018.9220889495668 308.3333405484951L1018.9220889495668 308.3333405484951Q1013.2308978232247 308.3333405484951 1009.8409274566648 305.48774498532407Q1006.4509570901046 302.6421494221531 1006.4509570901046 298.18817375805946L1006.4509570901046 298.18817375805946Q1006.4509570901046 294.6249932267845 1008.4305018297016 291.5814431896538Q1010.385302260054 288.5626374617681 1013.9484827913288 286.6820699591508Q1017.5116633226037 284.82624676577836 1022.312059316127 284.82624676577836L1022.312059316127 284.82624676577836Q1028.2012049164287 284.82624676577836 1031.492198046009 287.5728650919695Q1034.7831911755893 290.3442277274056 1034.7831911755893 294.79820339149927L1034.7831911755893 294.79820339149927Q1034.7831911755893 298.5345940874889 1032.7294135082573 301.6523770523545Q1030.70038015017 304.7701600172202 1027.1371996188952 306.5517502828576Q1023.5740190876202 308.3333405484951 1018.9220889495668 308.3333405484951ZM1081.2777482468784 430.37227374466204L1081.2777482468784 430.37227374466204Q1068.4601960579866 430.37227374466204 1061.3338349954367 419.6827321508372Q1054.2074739328868 408.9931905570123 1054.2074739328868 391.17728790063757L1054.2074739328868 391.17728790063757Q1054.2074739328868 374.0789702123669 1059.651221966779 361.16244078649515Q1065.0702256914262 348.2459113606235 1074.3493416582883 341.1195502980736Q1083.603713315905 333.9931892355237 1095.1840500425487 333.9931892355237L1095.1840500425487 333.9931892355237Q1107.3087615725815 333.9931892355237 1116.2909458285037 345.91994629159683Q1125.297874393671 357.8714476569148 1130.271480551909 379.9433715034236L1130.271480551909 379.9433715034236Q1130.6426451905834 380.83416663624234 1130.914832592278 381.9229162430207Q1131.1622756847275 382.98692154055425 1131.3602301586875 383.877716673373L1131.3602301586875 383.877716673373L1121.5614836976813 396.3488485328353Q1121.5614836976813 396.17563836812053 1121.3635292237216 395.9034509664259Q1121.1903190590067 395.6312635647313 1121.1903190590067 395.28484323530176L1121.1903190590067 395.28484323530176Q1118.5179336605506 382.442546737165 1115.3259177679502 374.42539054179633Q1112.1091575661046 366.4082343464278 1108.372766870115 362.1274688470488Q1104.6363761741252 357.8714476569148 1100.4298436024812 356.26306755599217Q1096.2480553400821 354.6546874550694 1091.6208695112737 354.6546874550694L1091.6208695112737 354.6546874550694Q1081.9953332149823 354.6546874550694 1075.6855343575162 363.0182639798676Q1069.3509911908052 371.4065848139106 1069.3509911908052 385.4860967742957L1069.3509911908052 385.4860967742957Q1069.3509911908052 394.1960936285234 1072.9141717220803 400.18421646580487Q1076.477352253355 406.1475949938414 1083.7769234806199 406.1475949938414L1083.7769234806199 406.1475949938414Q1089.1216942775322 406.1475949938414 1094.5654423114245 402.21324982389194Q1099.9844460360719 398.3036489631876 1105.527171306944 391.8948728687416Q1111.0451522685712 385.4860967742957 1116.835320631893 377.81536090835664Q1122.6254889952147 370.1446250424175 1128.687844760231 362.39965624874344Q1134.7254562160026 354.6546874550694 1141.2332095474285 348.2459113606235Q1147.7409628788541 341.8371352661776 1154.7683467044242 337.90279009622816Q1161.8204748392393 333.9931892355237 1169.4664663959334 333.9931892355237L1169.4664663959334 333.9931892355237Q1182.30876289407 333.9931892355237 1189.4351239566201 344.5837535923687Q1196.56148501917 355.19906225845864 1196.56148501917 372.6438002761589L1196.56148501917 372.6438002761589Q1196.56148501917 389.74211796442967 1191.1177369852776 402.7576246272812Q1185.6987332606304 415.7731312901327 1176.4196172937684 423.0727025173974Q1167.1652456361517 430.37227374466204 1155.584908909508 430.37227374466204L1155.584908909508 430.37227374466204Q1143.4601973794752 430.37227374466204 1134.379035886573 418.2475622146293Q1125.297874393671 406.1475949938414 1120.6706885648625 384.0509268380878L1120.6706885648625 384.0509268380878L1129.57863989305 368.73419941545444Q1132.2510252915063 381.55175160434624 1135.4430411841065 389.5689077997149Q1138.659801385952 397.5860639950836 1142.4951693189216 401.86682949446254Q1146.3057929426461 406.1475949938414 1150.51232551429 407.75597509476415Q1154.6941137766892 409.33961088644185 1159.148089440783 409.33961088644185L1159.148089440783 409.33961088644185Q1168.5756712631146 409.33961088644185 1175.0091916668055 400.97603436164377Q1181.4179677612512 392.6124578368456 1181.4179677612512 378.7061560411753L1181.4179677612512 378.7061560411753Q1181.4179677612512 369.79820471298797 1177.9290201577114 363.90905911268624Q1174.4648168634162 358.0446578216296 1167.1652456361517 358.0446578216296L1167.1652456361517 358.0446578216296Q1160.9296797064205 358.0446578216296 1155.1395113430985 361.95425868233406Q1149.349342979777 365.8886038522835 1143.73238478117 372.2973799467294Q1138.1154265825628 378.7061560411753 1132.5974456209356 386.45112483484934Q1127.0794646593083 394.1960936285234 1121.1903190590067 401.9658067314423Q1115.3259177679502 409.71077552511633 1109.090351838219 416.11955161956223Q1102.8547859084877 422.52832771400824 1095.9758679383874 426.46267288395757Q1089.1216942775322 430.37227374466204 1081.2777482468784 430.37227374466204Z " fill="#c3aef5" transform="matrix(0.731261990572864,0,0,0.7312619905728639,0,36.872726150840464)"/></g></svg>