<svg xmlns="http://www.w3.org/2000/svg" version="1.1" xmlns:xlink="http://www.w3.org/1999/xlink" xmlns:svgjs="http://svgjs.dev/svgjs" width="100%" height="100%" viewBox="0 0 1000 600"><rect width="1000" height="600" x="0" y="0" fill="#571717"/><g><rect width="333.3333333333333" height="333.3333333333333" rx="13.333333333333334" ry="13.333333333333334" y="282.32492990032983" fill="#f9bdbd" transform="matrix(0.48057941505406526,0,0,0.48057941505406526,0,84.22388478733255)" x="260.1028137207031"/><path d="M415.1457202827526 518.1559453598759L415.1457202827526 518.1559453598759Q413.87228824831845 517.7117248827478 413.42806777119023 518.570551138529Q413.0134619925372 519.4293773943102 412.59885621388423 520.7028094287443L412.59885621388423 520.7028094287443Q412.154635736756 522.1835443525051 411.41426827487567 523.3681322915136Q410.6739008129953 524.5527202305223 408.95624830143294 523.4865910854144L408.95624830143294 523.4865910854144Q407.6828162669987 518.7778540278555 407.26821048834574 513.3583642068913Q406.8239900112175 507.909259687452 405.7578608661098 502.9932197405664Q404.69173172100216 498.10679449215615 401.49334428567903 495.32301283548605L401.49334428567903 495.32301283548605Q397.22882770524825 500.03174989304506 391.69087909038325 504.50356936280235Q386.15293047551825 508.97538883255964 384.879498441084 512.5883820465358L384.879498441084 512.5883820465358Q383.16184592952163 513.447208302317 381.3553493225336 514.3060345580982Q379.54885271554554 515.1648608138794 377.83120020398314 516.230989958987L377.83120020398314 516.230989958987Q371.8490311119899 519.2220745049837 365.5707150352446 521.768938573852Q359.29239895849923 524.3158026427204 352.6587065000514 523.4865910854144L352.6587065000514 523.4865910854144Q346.70615210653335 522.6277648296332 340.1909184419863 520.3770477455171Q333.70529947591444 518.1559453598759 330.06269156346315 513.447208302317L330.06269156346315 513.447208302317Q329.44078289548366 511.96647337855626 329.44078289548366 510.7818854395477Q329.44078289548366 509.6269121990144 327.7231303839213 508.7680859432332L327.7231303839213 508.7680859432332Q331.12882070857086 480.1899019146518 343.3893058773094 460.7922744133867Q355.64979104604794 441.3946469121216 376.11354769242075 429.0157029494822L376.11354769242075 429.0157029494822Q376.76507105887544 427.9495738043745 377.949658997884 427.41650923182067Q379.10463223841737 426.8834446592668 379.54885271554554 425.6100126248326L379.54885271554554 425.6100126248326Q382.51032256306695 427.5349680257215 386.2417745709439 428.36417958302746Q389.9732265788208 429.22300583880866 393.61583449127215 429.4303087281352L393.61583449127215 429.4303087281352Q400.87143561769955 439.8842972898857 405.6690167706842 453.00360871440546Q410.4665979236688 466.12292013892517 415.1457202827526 479.3310756588706L415.1457202827526 479.3310756588706Q414.9384173934261 482.3221602048672 415.35302317207913 485.4020888462894Q415.79724364920736 488.5116321861869 416.41915231718684 491.71001962150996L416.41915231718684 491.71001962150996Q417.48528146229455 497.89949160282964 417.9295019394227 504.592413458228Q418.34410771807575 511.3149500121015 415.1457202827526 518.1559453598759ZM398.73917732748413 478.7091669908911L398.73917732748413 478.7091669908911Q398.29495685035596 476.5769087006757 396.8142219265952 470.802042498009Q395.30387230435934 465.0567909938175 392.8754670293918 458.4527132338448Q390.4174470559491 451.8190207753969 387.30790371605156 446.8141367330857Q384.22797507462934 441.8092526907746 380.82228474997976 441.6019498014481L380.82228474997976 441.6019498014481Q371.22712244401043 447.9987246720943 365.3634121459181 455.994693260402Q359.49970184782575 463.99066184870975 355.3240293628206 473.5858241546791Q351.17797157629064 483.1809864606484 346.05462874007867 494.70110416750657L346.05462874007867 494.70110416750657Q346.70615210653335 495.32301283548605 346.70615210653335 496.5076007744946Q346.70615210653335 497.66257401502793 346.2619316294051 498.96562074793735L346.2619316294051 498.96562074793735Q346.05462874007867 500.2390527823716 345.965784644653 501.51248481680574Q345.84732585075216 502.78591685123996 346.49884921720684 503.4374402176947L346.49884921720684 503.4374402176947Q353.72483564515903 505.36239561858355 360.12161051580523 503.3189814237938Q366.5183853864514 501.3051819274793 372.50055447844466 498.5214002708091L372.50055447844466 498.5214002708091Q376.35046528022247 496.5964448699203 379.96345849419856 495.2341687400604Q383.57645170817466 493.8422779117254 387.01175673129944 493.8422779117254L387.01175673129944 493.8422779117254Q387.21905962062596 491.71001962150996 389.55862080016783 488.7189350755134Q391.89818197970976 485.7278505295168 394.68196363637986 482.85522477742103Q397.4361305945747 479.98259902532527 398.73917732748413 478.7091669908911ZM525.8158484846269 481.46333394908595L525.8158484846269 481.46333394908595Q525.6085455953004 484.45441849508256 524.9570222288457 487.3270442471783Q524.305498862391 490.1996699992741 523.6835901944114 492.77614876661767L523.6835901944114 492.77614876661767Q523.0320668279567 496.18183909126725 522.499002255403 499.054464843363Q521.965937682849 501.92709059545876 522.4101581599773 504.0593488856741L522.4101581599773 504.0593488856741Q521.965937682849 505.98430428656303 519.9521381865345 506.7246717484434Q517.9087239917449 507.49465390879897 516.2206861786576 508.32386546610496Q514.5030336670952 509.18269172188616 514.2957307777688 512.1737762678827L514.2957307777688 512.1737762678827Q513.4369045219875 512.8252996343374 510.2385170866644 514.3060345580982Q507.0401296513413 515.7867694818588 503.6344393266917 516.764054531541Q500.2287490020421 517.7117248827478 498.3037936011532 517.5044219934213L498.3037936011532 517.5044219934213Q493.62467124206944 520.9101123180708 487.5240433561753 522.5093060357324Q481.4530301687565 524.108499753394 475.2635581874368 523.9011968640675L475.2635581874368 523.9011968640675Q467.3860483930299 523.693893974741 460.33775015592903 520.5843506348435Q453.3190666173033 517.5044219934213 449.676458704852 510.90034423344855Q446.0634654908759 504.2962664734759 447.78111800243835 494.04958080105183L447.78111800243835 494.04958080105183Q450.7425878499597 491.2657991443818 452.04563458286907 487.1197413578518Q453.3190666173033 482.9736835713219 454.7109574456384 478.7980110863167Q456.0732335754982 474.6519532997868 459.0643181214948 472.31239212024485L459.0643181214948 472.31239212024485Q458.85701523216835 469.5286104635748 460.57466774373074 466.2117642343508Q462.2627055568179 462.9245327036021 463.98035806838027 460.140751046932L463.98035806838027 460.140751046932Q464.83918432416147 458.8673190124978 465.461092992141 457.5938869780636Q466.1126163585957 456.3204549436294 466.5272221372487 455.4616286878482L466.5272221372487 455.4616286878482Q465.2537901028145 454.3954995427405 466.43837804182306 450.54558874096267Q467.59335128235637 446.72529263766006 469.84406836647264 441.48349100754723Q472.0651707521137 436.2713040759096 474.6416495194573 431.1479612396976L474.6416495194573 431.1479612396976Q476.98121069899923 426.2319212928121 478.6988632105616 422.29316639560864Q480.38690102364876 418.3544114984052 480.38690102364876 416.8736765746445L480.38690102364876 416.8736765746445Q484.6514176040796 413.88259202864793 486.9909787836215 408.34464341378293Q489.3601546616386 402.77708010044273 491.78855993660613 396.17300234047Q494.24657991004887 389.5689245804973 498.5110964904797 383.5867554885041Q502.7756130709105 377.6342010949861 510.68273756379256 373.9915931825348L510.68273756379256 373.9915931825348Q510.68273756379256 373.9915931825348 511.0973433424456 376.65691604530406Q511.51194912109855 379.3222389080733 510.2385170866644 382.1060205647434L510.2385170866644 382.1060205647434Q507.4843501284695 388.2954925460631 504.2859626931464 396.3803052297965Q501.0875752578233 404.4947326120051 497.9780319179258 412.69800408963937Q494.8981032765036 420.90127556727356 492.1143216198335 428.156876693701Q489.3601546616386 435.4124778201284 487.4351992607497 439.8842972898857L487.4351992607497 439.8842972898857Q490.42628380674626 442.6680789465558 494.3650387039497 444.8003372367712Q498.3037936011532 446.9325955269866 500.2287490020421 451.40441499674387L500.2287490020421 451.40441499674387Q503.6344393266917 451.8190207753969 505.4409359336797 453.5366732869593Q507.2474325406678 455.2543257985217 509.1723879415567 457.26812529483624Q511.0973433424456 459.28192479115074 514.2957307777688 460.9995773027132L514.2957307777688 460.9995773027132Q514.5030336670952 462.9245327036021 515.5691628122029 464.3164235319371Q516.6352919573105 465.678699661797 517.7014211024182 466.74482880690465L517.7014211024182 466.74482880690465Q518.9748531368525 468.2551784291406 519.9521381865345 469.6470692574756Q520.8998085377414 471.0093453873355 520.4852027590885 472.7269978988979L520.4852027590885 472.7269978988979Q522.8247639386302 474.44465041046027 523.0320668279567 476.45844990677483Q523.2393697172834 478.47224940308934 523.476287305085 479.8641402314244Q523.6835901944114 481.25603105975944 525.8158484846269 481.46333394908595ZM507.4843501284695 481.048728170433L507.4843501284695 481.048728170433Q503.4271364373652 476.78421159000214 500.64335478069506 471.779327547691Q497.88918782250016 466.74482880690465 492.7658449862882 462.27300933714736L492.7658449862882 462.27300933714736Q491.907018730507 461.41418308136616 489.56745755096506 460.9995773027132Q487.2278963714232 460.58497152406017 485.1844821766334 459.6076864743781Q483.1706826803189 458.66001612317126 483.1706826803189 456.7350607222824L483.1706826803189 456.7350607222824Q479.1134689892146 458.4527132338448 477.1885135883257 462.1841652417217Q475.2635581874368 465.9156172495987 473.9901261530026 470.2689779254551Q472.7166941185684 474.6519532997868 470.999041607006 478.5907081969902Q469.3110037939188 482.52946309419366 465.6683958814675 484.6617213844091L465.6683958814675 484.6617213844091Q466.5272221372487 485.10594186153725 467.06028670980254 484.78018017830993Q467.59335128235637 484.45441849508256 468.03757175948465 484.0398127164296L468.03757175948465 484.0398127164296Q468.8667833167906 483.38828934997485 469.1037009045923 484.24711560575605L469.1037009045923 484.24711560575605Q466.1126163585957 489.57776133129454 464.18766095770684 495.6487745187134Q462.2627055568179 501.71978770613225 462.4700084461444 505.56969850791006L462.4700084461444 505.56969850791006Q466.73452502657517 507.7019567981254 471.2359591948077 508.8569300386588Q475.707778664565 510.04151797766735 480.38690102364876 509.83421508834084L480.38690102364876 509.83421508834084Q488.2940255165309 509.6269121990144 496.3788382002643 505.0366339353562Q504.4932655824729 500.4463556716981 507.2474325406678 492.77614876661767L507.2474325406678 492.77614876661767Q504.9078713611259 492.33192828948944 505.64823882300624 488.3043292968604Q506.4182209833618 484.24711560575605 507.2474325406678 481.46333394908595L507.2474325406678 481.46333394908595Q507.4843501284695 481.25603105975944 507.4843501284695 481.048728170433Z " fill="#571717" transform="matrix(0.48057941505406526,0,0,0.48057941505406526,0,84.22388478733255)"/><path d="M762.3016536037661 515.0385408172622L762.3016536037661 515.0385408172622Q761.0557582168165 514.6039261473959 760.6211435469502 515.4441811758038Q760.2155031884084 516.2844362042118 759.8098628298667 517.5303315911615L759.8098628298667 517.5303315911615Q759.3752481600004 518.9790471573822 758.6508903768902 520.1380196103587Q757.9265325937798 521.2969920633352 756.2460225369639 520.2539168556564L756.2460225369639 520.2539168556564Q755.0001271500141 515.6470013550747 754.5944867914724 510.3447023827072Q754.1598721216062 505.01342909901535 753.1167969139274 500.20369341916285Q752.0737217062485 495.42293205063476 748.9444960832119 492.69934678614L748.9444960832119 492.69934678614Q744.7721952524965 497.3062622867216 739.3539990348313 501.6813832967079Q733.9358028171662 506.0565043066942 732.6899074302164 509.5913702882725L732.6899074302164 509.5913702882725Q731.0093973734006 510.4316253166805 729.2419643826114 511.27188034508845Q727.4745313918222 512.1121353734964 725.7940213350063 513.1552105811752L725.7940213350063 513.1552105811752Q719.941210447475 516.081616024941 713.7986564466994 518.5734067988404Q707.656102445924 521.0651975727399 701.1658567092556 520.2539168556564L701.1658567092556 520.2539168556564Q695.3420201330487 519.4136618272485 688.967671641678 517.2116141665931Q682.6222974616315 515.0385408172622 679.0584571687289 510.4316253166805L679.0584571687289 510.4316253166805Q678.4499966309161 508.9829097504599 678.4499966309161 507.8239372974834Q678.4499966309161 506.6939391558313 676.7694865741003 505.85368412742326L676.7694865741003 505.85368412742326Q680.1015323764077 477.8934736993652 692.0968972647145 458.9152997818749Q704.0922621530212 439.9371258643847 724.1135112781903 427.8258637307802L724.1135112781903 427.8258637307802Q724.7509461273274 426.7827885231014 725.909918580304 426.26125091926195Q727.039916721956 425.73971331542253 727.4745313918222 424.4938179284728L727.4745313918222 424.4938179284728Q730.3719625242635 426.3771481645596 734.0227257511394 427.1884288816432Q737.6734889780155 428.02868391005114 741.2373292709182 428.231504089322L741.2373292709182 428.231504089322Q748.3360355453992 438.45943598683965 753.0298739799541 451.29505590355444Q757.7237124145089 464.1306758202692 762.3016536037661 477.0532186709572L762.3016536037661 477.0532186709572Q762.0988334244953 479.97962411472287 762.504473783037 482.99295249246177Q762.9390884529032 486.0352551815251 763.5475489907159 489.16448080456166L763.5475489907159 489.16448080456166Q764.5906241983947 495.2201118713639 765.0252388682609 501.76830623068116Q765.4308792268027 508.3454749013228 762.3016536037661 515.0385408172622ZM746.2498851300415 476.44475813314455L746.2498851300415 476.44475813314455Q745.8152704601754 474.3586077177868 744.3665548939548 468.7086170095264Q742.8888650164097 463.08760061259034 740.5129714878078 456.6263291872463Q738.1081036478816 450.1360834505779 735.0658009588183 445.2394248367522Q732.0524725810794 440.34276622292646 728.720426778772 440.1399460436556L728.720426778772 440.1399460436556Q719.3327499096622 446.3983972897287 713.5958362674286 454.2214613473201Q707.858922625195 462.0445254049115 703.7735447284527 471.43220227402117Q699.717141143035 480.81987914313083 694.7045852839116 492.0908862483273L694.7045852839116 492.0908862483273Q695.3420201330487 492.69934678614 695.3420201330487 493.8583192391165Q695.3420201330487 494.9883173807686 694.9074054631825 496.2631870790427L694.9074054631825 496.2631870790427Q694.7045852839116 497.5090824659925 694.6176623499384 498.7549778529422Q694.5017651046408 500.000873239892 695.1391999537777 500.63830808902907L695.1391999537777 500.63830808902907Q702.2089319169345 502.5216383251158 708.4673831630075 500.5224108437314Q714.7258344090807 498.55215767367133 720.578645296612 495.82857240917656L720.578645296612 495.82857240917656Q724.3453057687857 493.94524217308975 727.880171750364 492.6124238521667Q731.4150377319423 491.2506312199194 734.7760578455742 491.2506312199194L734.7760578455742 491.2506312199194Q734.978878024845 489.16448080456166 737.2678486194736 486.238075360796Q739.5568192141022 483.3116699170303 742.280404478597 480.5011617185623Q744.9750154317674 477.69065352009426 746.2498851300415 476.44475813314455ZM899.7847608381038 440.34276622292646L899.7847608381038 440.34276622292646Q900.8278360457826 444.9207074121837 900.3062984419432 450.4548008751465Q899.7847608381038 455.9888943381093 898.741685630425 461.6099107350453L898.741685630425 461.6099107350453Q898.1042507812879 465.5793913864898 897.5827131774485 469.4329747926367Q897.061175573609 473.31553251010797 897.061175573609 477.0532186709572L897.061175573609 477.0532186709572Q897.061175573609 478.09629387863606 896.6555352150672 479.5739837561811Q896.220920545201 481.0226993224017 895.8152801866593 482.70320937921764L895.8152801866593 482.70320937921764Q894.9750251582512 486.0352551815251 894.3665646204386 489.048583559264Q893.7291297713016 492.0908862483273 895.4096398281175 492.69934678614L895.4096398281175 492.69934678614Q894.9750251582512 495.2201118713639 894.4534875544118 500.3195906644605Q893.9319499505724 505.4190694575571 893.207592167462 510.3447023827072Q892.4832343843518 515.241360996533 891.0055445068067 517.5303315911615L891.0055445068067 517.5303315911615Q888.1081133743655 517.3275114118908 885.5873482891416 517.8490490157301Q883.0955575152421 518.3705866195696 882.660942845376 520.6595572141981L882.660942845376 520.6595572141981Q877.4455668069817 518.3705866195696 875.4753136369217 513.8795683642857Q873.5050604668616 509.38855010900164 873.2732659762663 503.5647135327947L873.2732659762663 503.5647135327947Q873.0704457969954 499.5952328813502 874.0265980707011 494.58267702222685Q874.9537760330822 489.57012116310347 876.199671420032 484.5575653039801L876.199671420032 484.5575653039801Q877.6773612975769 477.4878333408234 878.4886420146605 471.5191252079944Q879.3288970430685 465.5793913864898 877.2427466277109 463.49324097113214L877.2427466277109 463.49324097113214Q874.3163411839452 465.5793913864898 872.8676256177246 468.824514254824Q871.4189100515039 472.04066281183384 869.6225027493903 474.88014532162623Q867.8550697586011 477.69065352009426 863.8855891071566 478.7337287277731L863.8855891071566 478.7337287277731Q863.6827689278857 482.70320937921764 861.1909781539862 486.7596129646354Q858.6702130687623 490.8160165500532 855.3381672664549 494.7854972014977Q852.0061214641474 498.7549778529422 849.5143306902479 502.72445850438675Q846.9935656050241 506.6939391558313 846.7907454257531 510.6344454959514L846.7907454257531 510.6344454959514Q841.5753693873589 513.763671118988 837.4030685566435 517.5303315911615Q833.2307677259281 521.2969920633352 826.334881630718 523.5859626579638L826.334881630718 523.5859626579638Q824.4805257059555 522.1082727804187 820.8297624790796 521.2969920633352Q817.1789992522035 520.4567370349273 815.0928488368459 521.9054526011478L815.0928488368459 521.9054526011478Q812.369263572351 520.8623773934689 810.6887535155352 519.2108416479775Q809.0372177700435 517.5303315911615 806.3136325055489 516.6900765627536L806.3136325055489 516.6900765627536Q801.0982564671546 509.38855010900164 799.3308234763654 500.1167704851896Q797.5633904855762 490.8160165500532 798.0849280894156 481.1385965676994Q798.606465693255 471.43220227402117 800.2580014387465 463.49324097113214L800.2580014387465 463.49324097113214Q800.8954362878837 460.7986300179617 802.3441518541043 458.71247960260405Q803.8218417316493 456.6263291872463 804.6620967600572 453.90274392275154L804.6620967600572 453.90274392275154Q806.748247175415 448.04993303522025 808.5156801662042 441.50173867590297Q810.2831131569933 434.92457000526133 813.2964415347323 429.50637378759615Q816.3387442237956 424.0592032586066 821.9597606207316 422.4076675131151L821.9597606207316 422.4076675131151Q821.1195055923237 431.15790953308766 819.5548927808054 439.41558826054523Q817.990279969287 447.64429267667845 816.5415644030664 455.3514594889722L816.5415644030664 455.3514594889722Q813.6151589593007 469.34605185866343 811.9636232138093 481.6601341715388Q810.2831131569933 493.94524217308975 813.8179791385717 505.01342909901535L813.8179791385717 505.01342909901535Q817.990279969287 505.85368412742326 823.8430908568184 502.4057410798182Q829.6959017443498 498.95779803221313 836.3599933489646 492.6124238521667Q843.0240849535795 486.238075360796 849.7171508695188 478.4150113032046Q856.3812424741337 470.5919472456132 862.2340533616651 462.7688831880218Q868.057889937872 454.9458191304304 872.2301907685875 448.4845477050864Q876.4024915993028 442.0232762797424 877.8801814768478 438.6622561661105L877.8801814768478 438.6622561661105Q878.7204365052559 433.2440599484454 879.7635117129347 430.1148343254088Q880.8065869206135 426.9856087023723 883.5011978737839 422.4076675131151L883.5011978737839 422.4076675131151Q888.919394091449 420.72715745629915 893.6132325260039 423.5376656547672Q898.3070709605588 426.3771481645596 899.3501461682376 430.54944899527504L899.3501461682376 430.54944899527504Q899.5819406588329 431.79534438222476 899.5819406588329 432.8384195899036Q899.5819406588329 433.88149479758243 899.5819406588329 435.1273901845322L899.5819406588329 435.1273901845322Q899.5819406588329 436.17046539221104 899.4660434135353 437.5322580244585Q899.3501461682376 438.8940506567058 899.7847608381038 440.34276622292646ZM1025.9968609672449 379.20696932841594L1025.9968609672449 379.20696932841594Q1023.9107105518872 395.08489193419405 1021.6217399572586 407.6017944263403Q1019.3037950513058 420.1186969184865 1016.9279015227039 431.07098659911446Q1014.5230336827776 442.0232762797424 1011.9153456635804 452.54095129050415Q1009.3076576443834 463.08760061259034 1006.3812522006176 474.9670682555995L1006.3812522006176 474.9670682555995Q1004.7007421438017 478.09629387863606 1003.5707440021497 482.38449195464915Q1002.4117715491732 486.64371571933776 1003.0492063983102 489.16448080456166L1003.0492063983102 489.16448080456166Q1002.8463862190392 490.4103761915114 1001.5715165207652 494.4667797769292Q1000.3256211338154 498.55215767367133 998.6740853883239 503.24599610822617Q996.9935753315079 507.939834542781 995.5448597652874 511.0690601658176Q994.0671698877422 514.198285788854 993.4587093499297 513.3580307604461L993.4587093499297 513.3580307604461Q992.4156341422508 513.9954656095833 992.5025570762241 514.401105968125Q992.6184543215217 514.8067463266668 993.0240946800634 515.4441811758038L993.0240946800634 515.4441811758038Q993.6615295292005 516.2844362042118 993.8643497084714 516.6900765627536L993.8643497084714 516.6900765627536Q993.8643497084714 517.5303315911615 992.4156341422508 518.3705866195696Q990.9379442647057 519.2108416479775 989.4892286984851 520.022122365061L989.4892286984851 520.022122365061Q987.4030782831273 521.0651975727399 987.4030782831273 521.2969920633352L987.4030782831273 521.2969920633352Q980.710012367188 520.8623773934689 975.9292509986601 518.8921242234089Q971.1195153188075 516.8928967420245 964.6582438934636 513.9954656095833L964.6582438934636 513.9954656095833Q962.166453119564 511.90931519422554 957.6754348642801 506.5780419105336Q953.1844166089961 501.2467686268417 948.1718607498728 494.69857426752446Q943.1593048907494 488.1214055968828 939.2187985506293 482.1816717753782Q935.2493178991847 476.21296364254925 933.7716280216398 472.8809178402418L933.7716280216398 472.8809178402418Q932.7285528139608 469.75169221720523 934.4090628707768 464.97093084867714Q936.0895729275928 460.1611951688247 938.1757233429505 455.3514594889722L938.1757233429505 455.3514594889722Q938.987004060034 453.69992374348067 939.7403361544687 452.01941368666473Q940.4646939375791 450.3678779411732 941.0731544753917 448.6873678843573L941.0731544753917 448.6873678843573Q945.4772497967024 448.6873678843573 950.3739084105282 448.04993303522025Q955.2705670243538 447.4414724974076 959.0372274965275 445.35532208204984Q962.7749136573767 443.26917166669216 963.6151686857847 439.2996910152476L963.6151686857847 439.2996910152476Q968.8305447241789 438.6622561661105 974.5674583664127 436.57610575075284Q980.3043720086463 434.4899553353951 984.8823131979035 433.88149479758243L984.8823131979035 433.88149479758243Q989.2864085192142 433.2440599484454 993.980246953769 434.4899553353951Q998.6740853883239 435.7648250336693 999.2825459261365 439.2996910152476L999.2825459261365 439.2996910152476Q1000.5284413130863 439.5025111945185 1001.2817734075211 437.7350782037293Q1002.0061311906313 435.96764521294017 1002.614591728444 433.88149479758243L1002.614591728444 433.88149479758243Q1007.0186870497547 417.8007520125335 1011.2779108144434 404.15385137873517Q1015.5661088904565 390.4779764336124 1019.535589541901 374.6290281391588L1019.535589541901 374.6290281391588Q1021.6217399572586 375.8749235261085 1023.2732757027502 376.71517855451646Q1024.953785759566 377.5554335829244 1025.9968609672449 379.20696932841594ZM997.3992156900497 450.9763384789859L997.3992156900497 450.9763384789859Q994.9074249161503 449.0930082428991 990.3294837268932 449.0930082428991Q985.7225682263115 449.0930082428991 980.4202692539441 450.88941554501264Q975.0889959702521 452.6568485358018 970.7138749602657 455.4673567342698Q966.3387539502794 458.2778649327378 964.0208090443264 462.0445254049115L964.0208090443264 462.0445254049115Q960.8915834212899 463.08760061259034 958.2838954020928 466.73836383946633Q955.6762073828957 470.3891270663423 954.227491816675 474.44553065176007Q952.7787762504544 478.5309085485022 952.7787762504544 481.22551950167264L952.7787762504544 481.22551950167264Q954.0246716374041 482.47141488862235 955.2705670243538 483.83320752086973Q956.5164624113036 485.1950001531171 957.7623577982533 486.64371571933776L957.7623577982533 486.64371571933776Q961.7318384496979 491.04781104064847 965.8172163464401 494.9883173807686Q969.8736199318578 498.95779803221313 973.9300235172756 500.63830808902907Q978.0154014140178 502.2898438345205 981.7530875748669 499.5952328813502L981.7530875748669 499.5952328813502Q986.5628232547194 489.16448080456166 990.7351240854348 476.44475813314455Q994.9074249161503 463.696061150403 997.3992156900497 450.9763384789859ZM1097.9690502970857 497.5090824659925L1097.9690502970857 497.5090824659925Q1096.2885402402699 501.478563117437 1095.9698228157013 505.85368412742326Q1095.680079702457 510.2288051374096 1097.1287952686778 512.5177757320382L1097.1287952686778 512.5177757320382Q1093.9995696456413 515.4441811758038 1088.9000908525445 516.6031536287803Q1083.7716377481238 517.7331517704324 1078.5562617097294 518.1677664402987Q1073.3408856713352 518.5734067988404 1069.3714050198905 519.8193021857901L1069.3714050198905 519.8193021857901Q1066.879614245991 519.4136618272485 1064.6775665853356 518.1677664402987Q1062.5044932360047 516.8928967420245 1060.215522641376 515.8498215343457L1060.215522641376 515.8498215343457Q1058.5350125845603 512.7205959113091 1058.3321924052893 506.98368226907536Q1058.1293722260186 501.2467686268417 1059.2593703676707 494.3798568429559Q1060.418342820647 487.48397074774573 1062.5044932360047 480.81987914313083L1062.5044932360047 480.81987914313083Q1062.5044932360047 480.38526447326467 1063.8662858682521 476.0101434632783Q1065.1991041891752 471.63502245329204 1067.082434425262 465.7822115657607Q1068.9657646613487 459.95837498955376 1070.6462747181647 455.06171637572805Q1072.2978104636563 450.1360834505779 1073.1380654920642 448.89018806362816L1073.1380654920642 448.89018806362816Q1074.181140699743 444.9207074121837 1075.9485736905322 442.22609645901326Q1077.7160066813215 439.5025111945185 1079.3965167381373 436.80790024134814Q1081.0770267949533 434.08431497685336 1081.685487332766 430.1148343254088L1081.685487332766 430.1148343254088Q1083.9744579273945 429.07175911773 1084.4090725972608 427.7099664854826Q1084.8147129558024 426.3771481645596 1086.2924028333475 424.4938179284728L1086.2924028333475 424.4938179284728Q1087.7411183995682 428.231504089322 1087.2195807957287 432.40380492003743Q1086.6980431918892 436.57610575075284 1085.8577881634812 440.34276622292646L1085.8577881634812 440.34276622292646Q1085.6549679842105 441.38584143060535 1085.5390707389129 442.22609645901326Q1085.4521478049396 443.06635148742123 1085.2493276256687 443.8776322045048L1085.2493276256687 443.8776322045048Q1085.6549679842105 445.15250190277897 1084.2062524179898 449.933263271307Q1082.7285625404447 454.7429989511595 1080.845232304358 461.00145019723266L1080.845232304358 461.00145019723266Q1078.9908763795956 466.4196464148978 1077.194469077482 472.1565600571315Q1075.4270360866929 477.8934736993652 1074.4998581243117 482.70320937921764Q1073.5437058506059 487.48397074774573 1073.9783205204722 489.77294134237434L1073.9783205204722 489.77294134237434Q1073.7755003412012 491.45345139919027 1073.3408856713352 494.58267702222685Q1072.9352453127933 497.71190264526336 1072.500630642927 499.160618211484L1072.500630642927 499.160618211484Q1074.383960879014 500.8411282682999 1078.3534415304584 500.7252310230023Q1082.3229221819029 500.63830808902907 1086.90086337116 499.79805306062104Q1091.5077788717417 498.95779803221313 1095.04264485332 498.1175430038051L1095.04264485332 498.1175430038051Q1095.8828998817282 497.91472282453424 1096.6072576648385 497.82779989056104Q1097.3316154479487 497.71190264526336 1097.9690502970857 497.5090824659925ZM1113.4123582329976 397.7795028873644L1113.4123582329976 397.7795028873644Q1112.9777435631313 399.2571927649094 1112.369283025319 400.7059083311301Q1111.7318481761818 402.1546238973507 1111.7318481761818 404.4725688033037L1111.7318481761818 404.4725688033037Q1110.8915931477738 404.4725688033037 1109.4428775815531 406.24000179409285Q1107.965187704008 408.00743478488204 1104.7490391469983 409.68794484169797Q1101.503916278664 411.3394805871895 1094.6370044947785 411.3394805871895L1094.6370044947785 411.3394805871895Q1091.9134192302836 409.89076502096884 1090.464703664063 407.36999993574494Q1088.9870137865178 404.87820916184546 1087.3354780410264 402.7920587464878L1087.3354780410264 402.7920587464878Q1088.3785532487052 393.607202056649 1091.797521984986 388.8264406881209Q1095.245465032591 384.01670500826845 1104.4303217224299 386.9431104520341L1104.4303217224299 386.9431104520341Q1106.5164721377876 386.7402902727632 1108.3998023738743 388.91336362209415Q1110.2831326099613 391.1154112827495 1111.7318481761818 393.81002223591986Q1113.1805637424025 396.53360750041463 1113.4123582329976 397.7795028873644ZM1226.6729412001264 460.36401534809556L1226.6729412001264 460.36401534809556Q1226.6729412001264 460.56683552736644 1226.0644806623138 461.6099107350453L1226.0644806623138 461.6099107350453Q1225.021405454635 463.2904207918612 1223.2249981525215 466.53554366019546Q1221.4575651617322 469.75169221720523 1220.0957725294847 473.19963526481035Q1218.762954208562 476.6475783124154 1218.762954208562 478.936548907044L1218.762954208562 478.936548907044Q1217.9226991801538 478.7337287277731 1216.445009302609 480.61705896385996Q1214.9962937363882 482.47141488862235 1213.8373212834117 484.47064237000683Q1212.7073231417596 486.4408955400669 1212.7073231417596 487.28115056847486L1212.7073231417596 487.28115056847486Q1209.780917697994 490.4103761915114 1207.1732296787968 494.4667797769292Q1204.5655416595996 498.55215767367133 1201.5522132818608 502.0001007212764Q1198.5099105927975 505.4190694575571 1193.9319694035403 506.6939391558313L1193.9319694035403 506.6939391558313Q1192.6860740165905 508.3454749013228 1190.3681291106375 510.54752256197816Q1188.0791585160089 512.7205959113091 1185.9930081006512 512.1121353734964L1185.9930081006512 512.1121353734964Q1184.1096778645642 515.0385408172622 1180.1691715244442 516.2844362042118Q1176.1996908729998 517.5303315911615 1172.5489276461237 518.254689374272Q1168.8981644192477 518.9790471573822 1167.8550892115688 521.0651975727399L1167.8550892115688 521.0651975727399Q1165.7689387962112 520.4567370349273 1164.291248918666 520.7754544594958Q1162.8425333524456 521.0651975727399 1161.3938177862249 521.4998122426061L1161.3938177862249 521.4998122426061Q1160.553562757817 521.9054526011478 1159.8292049747065 522.1082727804187Q1159.0758728802718 522.340067271014 1158.032797672593 522.542887450285L1158.032797672593 522.542887450285Q1151.77434642652 520.4567370349273 1147.6020455958046 518.3705866195696Q1143.4297447650893 516.2844362042118 1140.9379539911897 510.86623998654665L1140.9379539911897 510.86623998654665Q1141.5753888403267 509.8231647788678 1141.2566714157583 508.25855196734955Q1140.9379539911897 506.6939391558313 1140.5323136326479 505.01342909901535L1140.5323136326479 505.01342909901535Q1139.8948787835109 502.9272786836577 1139.5761613589423 501.0439484475708Q1139.257443934374 499.160618211484 1140.5323136326479 498.34933749440046L1140.5323136326479 498.34933749440046Q1138.2143687266948 491.45345139919027 1139.1705210004006 485.0791029078195Q1140.0976989627816 478.7337287277731 1141.7782090195976 471.83784263256297L1141.7782090195976 471.83784263256297Q1142.8212842272765 468.3029766509846 1143.6615392556844 464.33349599954005Q1144.4728199727679 460.36401534809556 1145.110254821905 455.9888943381093L1145.110254821905 455.9888943381093Q1146.153330029584 455.3514594889722 1146.9935850579918 455.3514594889722L1146.9935850579918 455.3514594889722Q1148.6451208034835 446.1955771104578 1154.6138289363123 438.2566158075688Q1160.553562757817 430.3176545046797 1165.971758975482 423.4507427207939L1165.971758975482 423.4507427207939Q1167.4204745417028 423.24792254152305 1168.8981644192477 422.72638493768363Q1170.3468799854684 422.2048473338442 1171.8245698630135 421.770232663978L1171.8245698630135 421.770232663978Q1175.5622560238626 420.32151709775735 1178.89430182617 419.79997949391793Q1182.255321939802 419.2784418900785 1184.1096778645642 422.8133078716569L1184.1096778645642 422.8133078716569Q1185.5873677421096 422.4076675131151 1189.2381309689854 422.61048769238596Q1192.8888941958614 422.8133078716569 1196.858374847306 423.3348454754963Q1200.798881187426 423.8563830793357 1202.479391244242 424.6966381077437L1202.479391244242 424.6966381077437Q1205.2029765087368 425.73971331542253 1208.940662669586 428.14458115534876Q1212.7073231417596 430.54944899527504 1216.1552661893647 433.0412397691745Q1219.5742349256452 435.533030543074 1221.2547449824613 437.6191809584317L1221.2547449824613 437.6191809584317Q1222.9352550392773 439.09687083597674 1223.978330246956 441.5886616098762Q1225.021405454635 444.1094266951001 1225.224225633906 446.3983972897287L1225.224225633906 446.3983972897287Q1226.2673008415845 446.3983972897287 1226.6729412001264 449.6145458467385Q1227.1075558699927 452.8596687150727 1227.1075558699927 456.3076117626778Q1227.1075558699927 459.7555548102829 1226.6729412001264 460.36401534809556ZM1210.418352547131 452.8596687150727L1210.418352547131 452.8596687150727Q1209.3752773394522 452.2222338659356 1207.3760498580677 450.9763384789859Q1205.4057966880077 449.7304430920361 1204.1599013010577 447.8471128559493Q1202.8850316027838 445.9637826198625 1203.5224664519208 443.6748120252339L1203.5224664519208 443.6748120252339Q1201.8419563951047 443.8776322045048 1201.0306756780215 443.47199184596303Q1200.1904206496133 443.06635148742123 1199.5529858004763 442.4289166382842L1199.5529858004763 442.4289166382842Q1199.3501656212054 442.22609645901326 1199.1473454419345 442.22609645901326L1199.1473454419345 442.22609645901326Q1196.4237601774398 439.9371258643847 1191.8458189881826 438.8940506567058Q1187.238903487601 437.850975449027 1182.1394246945042 437.010720420619Q1177.0399459014077 436.17046539221104 1172.433030400826 434.92457000526133L1172.433030400826 434.92457000526133Q1166.174579154753 442.0232762797424 1161.4807407201981 453.58402649818305Q1156.7869022856432 465.1737510279481 1154.7007518702856 478.0093709446628Q1152.6146014549279 490.8160165500532 1153.4548564833358 502.08702365524965L1153.4548564833358 502.08702365524965Q1154.4979316910149 502.72445850438675 1155.5410068986935 502.81138143836Q1156.5840821063725 502.9272786836577 1157.829977493322 502.72445850438675L1157.829977493322 502.72445850438675Q1158.6702325217302 502.72445850438675 1159.713307729409 502.72445850438675Q1160.756382937088 502.72445850438675 1161.7994581447667 502.9272786836577L1161.7994581447667 502.9272786836577Q1162.0022783240377 504.37599424987826 1163.3640709562849 505.01342909901535Q1164.7258635885323 505.65086394815245 1165.1315039470742 504.37599424987826L1165.1315039470742 504.37599424987826Q1167.6522690322981 502.5216383251158 1172.346107466853 499.3924127020793Q1177.0399459014077 496.2631870790427 1180.3719917037151 493.7424219938188L1180.3719917037151 493.7424219938188Q1180.980452241528 493.7424219938188 1182.255321939802 493.7424219938188L1182.255321939802 493.7424219938188Q1184.3414723551596 493.53960181454795 1186.6304429497882 493.3367816352771Q1188.9194135444168 493.13396145600615 1189.9624887520959 491.859091757732L1189.9624887520959 491.859091757732Q1189.556848393554 491.45345139919027 1188.5137731858752 491.2506312199194L1188.5137731858752 491.2506312199194Q1187.6735181574672 491.04781104064847 1187.1519805536277 490.7290936160799Q1186.6304429497882 490.4103761915114 1186.833263129059 489.16448080456166L1186.833263129059 489.16448080456166Q1189.3250539029586 488.52704595542457 1192.5701767712928 484.99217997384625Q1195.815299639627 481.4283396809435 1198.828628017366 477.7775764540675Q1201.8419563951047 474.1268132271915 1203.5224664519208 473.7211728686497L1203.5224664519208 473.7211728686497Q1203.3196462726498 471.83784263256297 1204.246824235031 470.27322982104465Q1205.2029765087368 468.7086170095264 1206.4488718956864 467.0570812640349L1206.4488718956864 467.0570812640349Q1207.6947672826361 465.37657120721894 1208.6219452450173 463.60913821642976Q1209.578097518723 461.8417052256406 1208.100407641178 459.95837498955376L1208.100407641178 459.95837498955376Q1210.1865580565357 459.3209401404167 1210.418352547131 458.07504475346695Q1210.621172726402 456.82914936651724 1210.418352547131 455.1486393097013L1210.418352547131 455.1486393097013Q1210.1865580565357 453.69992374348067 1210.418352547131 452.8596687150727ZM1168.4635497493814 435.7648250336693L1168.4635497493814 435.7648250336693Q1167.8550892115688 435.533030543074 1167.8550892115688 434.72174982599046L1167.8550892115688 434.72174982599046Q1167.8550892115688 433.88149479758243 1166.609193824619 434.08431497685336L1166.609193824619 434.08431497685336Q1161.3938177862249 441.38584143060535 1158.9889499462988 448.57147063905967Q1156.5840821063725 455.7860741588384 1152.8174216341988 465.1737510279481L1152.8174216341988 465.1737510279481Q1153.2520363040649 465.37657120721894 1153.6576766626067 466.2168262356269L1153.6576766626067 466.2168262356269Q1153.8604968418776 466.62246659416866 1154.1792142664463 466.73836383946633Q1154.4979316910149 466.8252867734396 1155.3381867194228 465.7822115657607L1155.3381867194228 465.7822115657607Q1156.3812619271016 461.20427037650353 1158.8730527010011 455.7860741588384Q1161.3938177862249 450.3678779411732 1164.0884287393953 445.0366046574813Q1166.81201400389 439.7053313737894 1168.4635497493814 435.7648250336693ZM1331.1832821472824 479.1393690863149L1331.1832821472824 479.1393690863149Q1330.9804619680117 482.06577453008055 1330.3720014301991 484.8762827285486Q1329.734566581062 487.6867909270166 1329.0971317319247 490.2075560122405L1329.0971317319247 490.2075560122405Q1328.4886711941124 493.53960181454795 1327.9671335902729 496.350110013016Q1327.4455959864333 499.160618211484 1327.8512363449752 501.2467686268417L1327.8512363449752 501.2467686268417Q1327.4455959864333 503.1300988629285 1325.446368505049 503.85445664603884Q1323.476115334989 504.60778874047355 1321.795605278173 505.4190694575571Q1320.1440695326812 506.25932448596507 1319.9412493534105 509.1857299297307L1319.9412493534105 509.1857299297307Q1319.1009943250026 509.8231647788678 1315.9717687019659 511.27188034508845Q1312.8425430789296 512.7205959113091 1309.510497276622 513.6767481850147Q1306.1494771629903 514.6039261473959 1304.2951212382277 514.401105968125L1304.2951212382277 514.401105968125Q1299.688205737646 517.7331517704324 1293.7484719161414 519.2977645819508Q1287.808738094637 520.8623773934689 1281.7531070278346 520.6595572141981L1281.7531070278346 520.6595572141981Q1274.0459402155411 520.4567370349273 1267.1500541203309 517.4144343458639Q1260.2541680251206 514.401105968125 1256.7193020435423 507.939834542781Q1253.1844360619639 501.478563117437 1254.8359718074555 491.45345139919027L1254.8359718074555 491.45345139919027Q1257.762377251221 488.7298661346955 1259.0082726381709 484.6734625492777Q1260.2541680251206 480.61705896385996 1261.6159606573679 476.53168106711774Q1262.9777532896155 472.47527748170006 1265.904158733381 470.18630688707145L1265.904158733381 470.18630688707145Q1265.7013385541102 467.4627216225766 1267.3528742996018 464.21759875424243Q1269.0333843564176 461.00145019723266 1270.684920101909 458.2778649327378L1270.684920101909 458.2778649327378Q1271.5251751303172 457.0319695457881 1272.1626099794541 455.7860741588384Q1272.7710705172667 454.54017877188863 1273.205685187133 453.69992374348067L1273.205685187133 453.69992374348067Q1271.9597898001834 452.6568485358018 1273.0897879418353 448.89018806362816Q1274.2487603948118 445.15250190277897 1276.421833744143 440.0240487983579Q1278.6238814047983 434.92457000526133 1281.1156721786977 429.91201414613795L1281.1156721786977 429.91201414613795Q1283.4336170846507 425.10227846628544 1285.085152830142 421.2486950601386Q1286.7656628869581 417.3951116539917 1286.7656628869581 415.94639608777106L1286.7656628869581 415.94639608777106Q1290.9379637176737 413.0199906440054 1293.226934312302 407.6017944263403Q1295.5159049069307 402.1546238973507 1297.920772746857 395.6933524720067Q1300.325640586783 389.2320810466627 1304.4979414174989 383.37927015913135Q1308.6702422482142 377.5554335829244 1316.3774090605077 373.9915932900217L1316.3774090605077 373.9915932900217Q1316.3774090605077 373.9915932900217 1316.812023730374 376.5992813092188Q1317.2176640889159 379.20696932841594 1315.9717687019659 381.9305545929107L1315.9717687019659 381.9305545929107Q1313.2481834374712 387.98618565971293 1310.1189578144347 395.89617265127754Q1306.9897321913982 403.8351339541666 1303.9764038136593 411.8610181910289Q1300.9341011245958 419.8869024278912 1298.2394901714254 426.9856087023723Q1295.5159049069307 434.08431497685336 1293.632574670844 438.45943598683965L1293.632574670844 438.45943598683965Q1296.5589801146095 441.1830212513344 1300.4125635207563 443.26917166669216Q1304.2951212382277 445.35532208204984 1306.1494771629903 449.7304430920361L1306.1494771629903 449.7304430920361Q1309.510497276622 450.1360834505779 1311.2779302674112 451.81659350739386Q1313.0453632582005 453.4971035642098 1314.9286934942872 455.4673567342698Q1316.812023730374 457.4376099043299 1319.9412493534105 459.11811996114585L1319.9412493534105 459.11811996114585Q1320.1440695326812 461.00145019723266 1321.1871447403603 462.36324282948004Q1322.2302199480391 463.696061150403 1323.273295155718 464.73913635808185L1323.273295155718 464.73913635808185Q1324.5191905426677 466.2168262356269 1325.446368505049 467.5786188678743Q1326.4025207787545 468.91143718879727 1325.9679061088884 470.5919472456132L1325.9679061088884 470.5919472456132Q1328.2858510148415 472.27245730242913 1328.4886711941124 474.2427104724892Q1328.691491373383 476.21296364254925 1328.894311552654 477.57475627479664Q1329.0971317319247 478.936548907044 1331.1832821472824 479.1393690863149ZM1313.2481834374712 478.7337287277731L1313.2481834374712 478.7337287277731Q1309.2787027860265 474.56142789705774 1306.5840918328563 469.66476928323203Q1303.8605065683616 464.73913635808185 1298.8479507092381 460.36401534809556L1298.8479507092381 460.36401534809556Q1298.0366699921544 459.5237603196876 1295.7187250862016 459.11811996114585Q1293.429754491573 458.71247960260405 1291.459501321513 457.7563273288984Q1289.4602738401284 456.82914936651724 1289.4602738401284 454.9458191304304L1289.4602738401284 454.9458191304304Q1285.5197675000084 456.6263291872463 1283.6364372639214 460.2770924141223Q1281.7531070278346 463.9278556409983 1280.507211640885 468.187079405687Q1279.2613162539353 472.47527748170006 1277.5808061971193 476.3288608878469Q1275.9002961403035 480.1824442939938 1272.365430158725 482.2685947093515L1272.365430158725 482.2685947093515Q1273.205685187133 482.70320937921764 1273.7272227909725 482.38449195464915Q1274.2487603948118 482.06577453008055 1274.6544007533537 481.6601341715388L1274.6544007533537 481.6601341715388Q1275.4946557817616 481.0226993224017 1275.6974759610325 481.8629543508097L1275.6974759610325 481.8629543508097Q1272.7710705172667 487.0783303892039 1270.9167145925044 493.01806421070853Q1269.0333843564176 498.95779803221313 1269.2362045356886 502.72445850438675L1269.2362045356886 502.72445850438675Q1273.408505366404 504.8106089197444 1277.7836263763902 505.9406070613965Q1282.1587473863765 507.09957951437303 1286.7656628869581 506.89675933510216L1286.7656628869581 506.89675933510216Q1294.4728296992519 506.6939391558313 1302.411791002141 502.2029209005473Q1310.3217779937056 497.71190264526336 1313.0453632582005 490.2075560122405L1313.0453632582005 490.2075560122405Q1310.756392663572 489.77294134237434 1311.480750446682 485.8324350022542Q1312.2051082297924 481.8629543508097 1313.0453632582005 479.1393690863149L1313.0453632582005 479.1393690863149Q1313.2481834374712 478.936548907044 1313.2481834374712 478.7337287277731ZM1410.2541777516046 388.1890058389838L1410.2541777516046 388.1890058389838Q1409.8485373930628 389.0292608673918 1409.8485373930628 389.86951589579974L1409.8485373930628 389.86951589579974Q1409.8485373930628 390.27515625434154 1409.732640147765 390.79669385818096Q1409.6457172137918 391.3182314620204 1409.0082823646546 391.9556663111575L1409.0082823646546 391.9556663111575Q1409.2111025439256 397.7795028873644 1407.5595667984342 405.28384952038726Q1405.8790567416183 412.81717046473455 1403.7929063262607 419.6840822486203L1403.7929063262607 419.6840822486203Q1402.5470109393107 424.2909977492019 1401.503935731632 428.231504089322Q1400.460860523953 432.2009847407665 1400.258040344682 435.1273901845322L1400.258040344682 435.1273901845322Q1397.940095438729 439.09687083597674 1397.41855783489 444.1963496290733Q1396.8970202310504 449.3248027334944 1394.8108698156925 455.9888943381093L1394.8108698156925 455.9888943381093Q1394.4052294571509 457.4376099043299 1393.2462570041744 460.56683552736644Q1392.1162588625223 463.696061150403 1390.4357488057062 463.696061150403L1390.4357488057062 463.696061150403Q1390.2329286264353 466.8252867734396 1389.3057506640541 471.9537398778606Q1388.3495983903488 477.0532186709572 1387.3065231826697 482.47141488862235L1387.3065231826697 482.47141488862235Q1386.0606277957202 489.16448080456166 1385.017552588041 495.10421462606627Q1383.9744773803625 501.0439484475708 1384.1772975596334 503.5647135327947L1384.1772975596334 503.5647135327947Q1384.3801177389041 505.01342909901535 1385.6549874371783 506.0565043066942Q1386.9008828241278 507.09957951437303 1387.3065231826697 508.78008957118897L1387.3065231826697 508.78008957118897Q1391.2760038341141 510.86623998654665 1393.6808716740404 510.86623998654665Q1396.0857395139667 510.86623998654665 1397.940095438729 510.4316253166805L1397.940095438729 510.4316253166805Q1399.8234256748158 510.02598495813874 1401.7067559109028 510.112907892112Q1403.5900861469897 510.2288051374096 1406.7193117700263 512.7205959113091L1406.7193117700263 512.7205959113091Q1406.922131949297 513.9954656095833 1406.5164915907553 514.7198233926936Q1406.081876920889 515.4441811758038 1405.4734163830765 516.081616024941L1405.4734163830765 516.081616024941Q1405.0388017132102 516.4872563834826 1404.6331613546683 517.0087939873222Q1404.1985466848023 517.5303315911615 1403.9957265055314 518.3705866195696L1403.9957265055314 518.3705866195696Q1402.1123962694446 518.5734067988404 1400.3449632786553 518.9790471573822Q1398.5775302878662 519.4136618272485 1396.8970202310504 519.8193021857901L1396.8970202310504 519.8193021857901Q1392.5218992210641 520.8623773934689 1387.741137852536 521.3839149973085Q1382.9314021726834 521.9054526011478 1376.0355160774732 518.9790471573822L1376.0355160774732 518.9790471573822Q1372.0950097373532 514.198285788854 1369.3714244728583 508.8670125051622Q1366.6478392083634 503.5647135327947 1368.1255290859087 495.2201118713639L1368.1255290859087 495.2201118713639Q1368.3283492651797 493.94524217308975 1369.0527070482897 489.88883858767196Q1369.7770648314001 485.8324350022542 1370.7332171051057 481.74705710551206Q1371.660395067487 477.69065352009426 1372.500650095895 477.0532186709572L1372.500650095895 477.0532186709572Q1370.820140039079 475.4016829254657 1371.0519345296743 474.1268132271915Q1371.2547547089453 472.8809178402418 1372.0950097373532 471.43220227402117L1372.0950097373532 471.43220227402117Q1372.500650095895 470.18630688707145 1373.0221876997343 468.91143718879727Q1373.5437253035736 467.6655418018475 1373.138084945032 466.2168262356269L1373.138084945032 466.2168262356269Q1374.5868005112527 465.5793913864898 1375.6298757189315 463.2904207918612Q1376.6729509266104 461.00145019723266 1377.0785912851522 458.5965823573064Q1377.5132059550183 456.19171451738015 1377.0785912851522 455.1486393097013L1377.0785912851522 455.1486393097013Q1379.16474170051 448.89018806362816 1381.5696095404362 439.61840843981616Q1383.9744773803625 430.3176545046797 1386.0606277957202 420.4084400317306Q1388.1467782110776 410.4992255587815 1389.1898534187567 402.27052114264836Q1390.2329286264353 394.04181672651515 1389.5954937772983 389.6377214052045L1389.5954937772983 389.6377214052045Q1388.5524185696197 387.55157098984677 1386.263447974991 387.55157098984677Q1383.9744773803625 387.55157098984677 1381.0480719365967 388.1890058389838L1381.0480719365967 388.1890058389838Q1377.5132059550183 388.8264406881209 1373.0221876997343 389.0292608673918Q1368.5311694444504 389.2320810466627 1363.9532282551932 386.30567560289705L1363.9532282551932 386.30567560289705Q1366.2421988498218 385.90003524435525 1368.4442465104773 385.37849764051583Q1370.6173198598083 384.8569600366764 1372.703470275166 384.4223453668102L1372.703470275166 384.4223453668102Q1381.0480719365967 382.5679894420478 1387.6252406072383 381.72773441363984Q1394.20240927788 380.88747938523187 1399.7365027408428 382.1333747721816Q1405.2416218924811 383.37927015913135 1410.2541777516046 388.1890058389838ZM1532.7285917198965 460.36401534809556L1532.7285917198965 460.36401534809556Q1532.7285917198965 460.56683552736644 1532.0911568707595 461.6099107350453L1532.0911568707595 461.6099107350453Q1531.0480816630804 463.2904207918612 1529.2806486722914 466.53554366019546Q1527.5132156815023 469.75169221720523 1526.1514230492546 473.19963526481035Q1524.7896304170074 476.6475783124154 1524.7896304170074 478.936548907044L1524.7896304170074 478.936548907044Q1523.9493753885993 478.7337287277731 1522.5006598223788 480.61705896385996Q1521.022969944834 482.47141488862235 1519.8929718031818 484.47064237000683Q1518.7339993502053 486.4408955400669 1518.7339993502053 487.28115056847486L1518.7339993502053 487.28115056847486Q1515.8075939064395 490.4103761915114 1513.1999058872423 494.4667797769292Q1510.592217868045 498.55215767367133 1507.5788894903064 502.0001007212764Q1504.5655611125674 505.4190694575571 1499.9586456119857 506.6939391558313L1499.9586456119857 506.6939391558313Q1498.7127502250362 508.3454749013228 1496.4237796304076 510.54752256197816Q1494.134809035779 512.7205959113091 1492.0486586204213 512.1121353734964L1492.0486586204213 512.1121353734964Q1490.1653283843345 515.0385408172622 1486.1958477328901 516.2844362042118Q1482.2263670814455 517.5303315911615 1478.5756038545694 518.254689374272Q1474.9248406276934 518.9790471573822 1473.8817654200145 521.0651975727399L1473.8817654200145 521.0651975727399Q1471.7956150046568 520.4567370349273 1470.3468994384361 520.7754544594958Q1468.869209560891 521.0651975727399 1467.4204939946706 521.4998122426061L1467.4204939946706 521.4998122426061Q1466.5802389662624 521.9054526011478 1465.8558811831522 522.1082727804187Q1465.131523400042 522.340067271014 1464.088448192363 522.542887450285L1464.088448192363 522.542887450285Q1457.8299969462898 520.4567370349273 1453.6576961155745 518.3705866195696Q1449.4853952848591 516.2844362042118 1446.9646301996352 510.86623998654665L1446.9646301996352 510.86623998654665Q1447.6020650487724 509.8231647788678 1447.2833476242038 508.25855196734955Q1446.9646301996352 506.6939391558313 1446.5589898410935 505.01342909901535L1446.5589898410935 505.01342909901535Q1445.9215549919563 502.9272786836577 1445.6318118787124 501.0439484475708Q1445.3130944541438 499.160618211484 1446.5589898410935 498.34933749440046L1446.5589898410935 498.34933749440046Q1444.270019246465 491.45345139919027 1445.197197208846 485.0791029078195Q1446.153349482552 478.7337287277731 1447.8048852280433 471.83784263256297L1447.8048852280433 471.83784263256297Q1448.847960435722 468.3029766509846 1449.68821546413 464.33349599954005Q1450.5284704925382 460.36401534809556 1451.1369310303505 455.9888943381093L1451.1369310303505 455.9888943381093Q1452.1800062380296 455.3514594889722 1453.0202612664375 455.3514594889722L1453.0202612664375 455.3514594889722Q1454.7007713232535 446.1955771104578 1460.640505144758 438.2566158075688Q1466.5802389662624 430.3176545046797 1471.9984351839278 423.4507427207939L1471.9984351839278 423.4507427207939Q1473.4761250614727 423.24792254152305 1474.9248406276934 422.72638493768363Q1476.4025305052385 422.2048473338442 1477.8512460714592 421.770232663978L1477.8512460714592 421.770232663978Q1481.6179065436324 420.32151709775735 1484.9499523459401 419.79997949391793Q1488.2819981482473 419.2784418900785 1490.1653283843345 422.8133078716569L1490.1653283843345 422.8133078716569Q1491.614043950555 422.4076675131151 1495.2648071774308 422.61048769238596Q1498.9155704043071 422.8133078716569 1502.8850510557515 423.3348454754963Q1506.854531707196 423.8563830793357 1508.5060674526876 424.6966381077437L1508.5060674526876 424.6966381077437Q1511.2296527171823 425.73971331542253 1514.9963131893562 428.14458115534876Q1518.7339993502053 430.54944899527504 1522.1819423978102 433.0412397691745Q1525.6298854454153 435.533030543074 1527.281421190907 437.6191809584317L1527.281421190907 437.6191809584317Q1528.9619312477228 439.09687083597674 1530.0050064554018 441.5886616098762Q1531.0480816630804 444.1094266951001 1531.2509018423514 446.3983972897287L1531.2509018423514 446.3983972897287Q1532.2939770500302 446.3983972897287 1532.7285917198965 449.6145458467385Q1533.1342320784381 452.8596687150727 1533.1342320784381 456.3076117626778Q1533.1342320784381 459.7555548102829 1532.7285917198965 460.36401534809556ZM1516.4450287555767 452.8596687150727L1516.4450287555767 452.8596687150727Q1515.4019535478978 452.2222338659356 1513.4317003778376 450.9763384789859Q1511.4324728964532 449.7304430920361 1510.1865775095036 447.8471128559493Q1508.9406821225537 445.9637826198625 1509.5491426603664 443.6748120252339L1509.5491426603664 443.6748120252339Q1507.8976069148748 443.8776322045048 1507.057351886467 443.47199184596303Q1506.2170968580588 443.06635148742123 1505.6086363202464 442.4289166382842L1505.6086363202464 442.4289166382842Q1505.376841829651 442.22609645901326 1505.1740216503802 442.22609645901326L1505.1740216503802 442.22609645901326Q1502.4794106972097 439.9371258643847 1497.872495196628 438.8940506567058Q1493.2945540073708 437.850975449027 1488.1661009029501 437.010720420619Q1483.0666221098531 436.17046539221104 1478.4886809205962 434.92457000526133L1478.4886809205962 434.92457000526133Q1472.2302296745231 442.0232762797424 1467.5363912399682 453.58402649818305Q1462.8425528054133 465.1737510279481 1460.7564023900557 478.0093709446628Q1458.670251974698 490.8160165500532 1459.4815326917812 502.08702365524965L1459.4815326917812 502.08702365524965Q1460.5246078994603 502.72445850438675 1461.5676831071394 502.81138143836Q1462.610758314818 502.9272786836577 1463.8856280130922 502.72445850438675L1463.8856280130922 502.72445850438675Q1464.6969087301757 502.72445850438675 1465.7399839378547 502.72445850438675Q1466.7830591455333 502.72445850438675 1467.8261343532122 502.9272786836577L1467.8261343532122 502.9272786836577Q1468.0579288438075 504.37599424987826 1469.3907471647306 505.01342909901535Q1470.7525397969778 505.65086394815245 1471.187154466844 504.37599424987826L1471.187154466844 504.37599424987826Q1473.6789452407436 502.5216383251158 1478.3727836752985 499.3924127020793Q1483.0666221098531 496.2631870790427 1486.3986679121608 493.7424219938188L1486.3986679121608 493.7424219938188Q1487.0361027612978 493.7424219938188 1488.2819981482473 493.7424219938188L1488.2819981482473 493.7424219938188Q1490.3681485636052 493.53960181454795 1492.6571191582336 493.3367816352771Q1494.9460897528627 493.13396145600615 1495.9891649605413 491.859091757732L1495.9891649605413 491.859091757732Q1495.5835246019994 491.45345139919027 1494.5404493943208 491.2506312199194L1494.5404493943208 491.2506312199194Q1493.7001943659127 491.04781104064847 1493.1786567620734 490.7290936160799Q1492.6571191582336 490.4103761915114 1492.8599393375048 489.16448080456166L1492.8599393375048 489.16448080456166Q1495.3807044227285 488.52704595542457 1498.5968529797385 484.99217997384625Q1501.8419758480725 481.4283396809435 1504.8553042258116 477.7775764540675Q1507.8976069148748 474.1268132271915 1509.5491426603664 473.7211728686497L1509.5491426603664 473.7211728686497Q1509.3463224810955 471.83784263256297 1510.3024747548013 470.27322982104465Q1511.2296527171823 468.7086170095264 1512.4755481041323 467.0570812640349L1512.4755481041323 467.0570812640349Q1513.7214434910818 465.37657120721894 1514.6775957647876 463.60913821642976Q1515.6047737271685 461.8417052256406 1514.156058160948 459.95837498955376L1514.156058160948 459.95837498955376Q1516.2422085763058 459.3209401404167 1516.4450287555767 458.07504475346695Q1516.6478489348476 456.82914936651724 1516.4450287555767 455.1486393097013L1516.4450287555767 455.1486393097013Q1516.2422085763058 453.69992374348067 1516.4450287555767 452.8596687150727ZM1474.5192002691517 435.7648250336693L1474.5192002691517 435.7648250336693Q1473.8817654200145 435.533030543074 1473.8817654200145 434.72174982599046L1473.8817654200145 434.72174982599046Q1473.8817654200145 433.88149479758243 1472.635870033065 434.08431497685336L1472.635870033065 434.08431497685336Q1467.4204939946706 441.38584143060535 1465.0156261547443 448.57147063905967Q1462.610758314818 455.7860741588384 1458.873072153969 465.1737510279481L1458.873072153969 465.1737510279481Q1459.2787125125105 465.37657120721894 1459.7133271823766 466.2168262356269L1459.7133271823766 466.2168262356269Q1459.916147361648 466.62246659416866 1460.2348647862161 466.73836383946633Q1460.5246078994603 466.8252867734396 1461.3648629278684 465.7822115657607L1461.3648629278684 465.7822115657607Q1462.407938135547 461.20427037650353 1464.928703220771 455.7860741588384Q1467.4204939946706 450.3678779411732 1470.1440792591654 445.0366046574813Q1472.8386902123357 439.7053313737894 1474.5192002691517 435.7648250336693ZM1651.0017305461486 460.36401534809556L1651.0017305461486 460.36401534809556Q1651.0017305461486 460.56683552736644 1650.3642956970114 461.6099107350453L1650.3642956970114 461.6099107350453Q1649.3212204893327 463.2904207918612 1647.5537874985437 466.53554366019546Q1645.7863545077544 469.75169221720523 1644.424561875507 473.19963526481035Q1643.0627692432597 476.6475783124154 1643.0627692432597 478.936548907044L1643.0627692432597 478.936548907044Q1642.251488526176 478.7337287277731 1640.7737986486309 480.61705896385996Q1639.3250830824102 482.47141488862235 1638.166110629434 484.47064237000683Q1637.0361124877818 486.4408955400669 1637.0361124877818 487.28115056847486L1637.0361124877818 487.28115056847486Q1634.109707044016 490.4103761915114 1631.502019024819 494.4667797769292Q1628.8943310056218 498.55215767367133 1625.8520283165585 502.0001007212764Q1622.8386999388194 505.4190694575571 1618.2607587495625 506.6939391558313L1618.2607587495625 506.6939391558313Q1616.9858890512883 508.3454749013228 1614.6969184566597 510.54752256197816Q1612.4079478620313 512.7205959113091 1610.3217974466734 512.1121353734964L1610.3217974466734 512.1121353734964Q1608.4384672105864 515.0385408172622 1604.468986559142 516.2844362042118Q1600.528480219022 517.5303315911615 1596.877716992146 518.254689374272Q1593.2269537652699 518.9790471573822 1592.183878557591 521.0651975727399L1592.183878557591 521.0651975727399Q1590.0977281422333 520.4567370349273 1588.6200382646882 520.7754544594958Q1587.1713226984677 521.0651975727399 1585.6936328209226 521.4998122426061L1585.6936328209226 521.4998122426061Q1584.8823521038391 521.9054526011478 1584.1290200094043 522.1082727804187Q1583.404662226294 522.340067271014 1582.3615870186152 522.542887450285L1582.3615870186152 522.542887450285Q1576.1031357725421 520.4567370349273 1571.9308349418268 518.3705866195696Q1567.7585341111112 516.2844362042118 1565.266743337212 510.86623998654665L1565.266743337212 510.86623998654665Q1565.8752038750247 509.8231647788678 1565.5854607617803 508.25855196734955Q1565.266743337212 506.6939391558313 1564.8321286673456 505.01342909901535L1564.8321286673456 505.01342909901535Q1564.2236681295328 502.9272786836577 1563.9049507049644 501.0439484475708Q1563.5862332803958 499.160618211484 1564.8321286673456 498.34933749440046L1564.8321286673456 498.34933749440046Q1562.543158072717 491.45345139919027 1563.4993103464228 485.0791029078195Q1564.4264883088038 478.7337287277731 1566.1069983656198 471.83784263256297L1566.1069983656198 471.83784263256297Q1567.1500735732986 468.3029766509846 1567.9613542903821 464.33349599954005Q1568.80160931879 460.36401534809556 1569.4390441679272 455.9888943381093L1569.4390441679272 455.9888943381093Q1570.482119375606 455.3514594889722 1571.322374404014 455.3514594889722L1571.322374404014 455.3514594889722Q1572.9739101495054 446.1955771104578 1578.9136439710103 438.2566158075688Q1584.8823521038391 430.3176545046797 1590.3005483215043 423.4507427207939L1590.3005483215043 423.4507427207939Q1591.749263887725 423.24792254152305 1593.2269537652699 422.72638493768363Q1594.6756693314906 422.2048473338442 1596.1243848977113 421.770232663978L1596.1243848977113 421.770232663978Q1599.8910453698848 420.32151709775735 1603.2230911721922 419.79997949391793Q1606.5551369744996 419.2784418900785 1608.4384672105864 422.8133078716569L1608.4384672105864 422.8133078716569Q1609.9161570881317 422.4076675131151 1613.5669203150076 422.61048769238596Q1617.2176835418834 422.8133078716569 1621.1581898820036 423.3348454754963Q1625.1276705334483 423.8563830793357 1626.808180590264 424.6966381077437L1626.808180590264 424.6966381077437Q1629.5027915434346 425.73971331542253 1633.269452015608 428.14458115534876Q1637.0361124877818 430.54944899527504 1640.4550812240625 433.0412397691745Q1643.9030242716676 435.533030543074 1645.5835343284837 437.6191809584317L1645.5835343284837 437.6191809584317Q1647.235070073975 439.09687083597674 1648.278145281654 441.5886616098762Q1649.3212204893327 444.1094266951001 1649.553014979928 446.3983972897287L1649.553014979928 446.3983972897287Q1650.5960901876067 446.3983972897287 1651.0017305461486 449.6145458467385Q1651.4073709046904 452.8596687150727 1651.4073709046904 456.3076117626778Q1651.4073709046904 459.7555548102829 1651.0017305461486 460.36401534809556ZM1634.718167581829 452.8596687150727L1634.718167581829 452.8596687150727Q1633.67509237415 452.2222338659356 1631.70483920409 450.9763384789859Q1629.7345860340297 449.7304430920361 1628.4597163357555 447.8471128559493Q1627.2138209488057 445.9637826198625 1627.851255797943 443.6748120252339L1627.851255797943 443.6748120252339Q1626.1707457411271 443.8776322045048 1625.3304907127192 443.47199184596303Q1624.5192099956355 443.06635148742123 1623.8817751464983 442.4289166382842L1623.8817751464983 442.4289166382842Q1623.6789549672274 442.22609645901326 1623.4761347879567 442.22609645901326L1623.4761347879567 442.22609645901326Q1620.752549523462 439.9371258643847 1616.1746083342045 438.8940506567058Q1611.5676928336231 437.850975449027 1606.4682140405264 437.010720420619Q1601.3397609361052 436.17046539221104 1596.7618197468482 434.92457000526133L1596.7618197468482 434.92457000526133Q1590.503368500775 442.0232762797424 1585.8095300662205 453.58402649818305Q1581.1156916316656 465.1737510279481 1579.0295412163077 478.0093709446628Q1576.94339080095 490.8160165500532 1577.783645829358 502.08702365524965L1577.783645829358 502.08702365524965Q1578.826721037037 502.72445850438675 1579.8697962447156 502.81138143836Q1580.9128714523947 502.9272786836577 1582.1587668393443 502.72445850438675L1582.1587668393443 502.72445850438675Q1582.9990218677522 502.72445850438675 1584.0420970754312 502.72445850438675Q1585.08517228311 502.72445850438675 1586.1282474907887 502.9272786836577L1586.1282474907887 502.9272786836577Q1586.3310676700598 504.37599424987826 1587.692860302307 505.01342909901535Q1589.0546529345545 505.65086394815245 1589.4602932930964 504.37599424987826L1589.4602932930964 504.37599424987826Q1591.952084066996 502.5216383251158 1596.6459225015506 499.3924127020793Q1601.3397609361052 496.2631870790427 1604.7007810497373 493.7424219938188L1604.7007810497373 493.7424219938188Q1605.3092415875499 493.7424219938188 1606.5551369744996 493.7424219938188L1606.5551369744996 493.7424219938188Q1608.6412873898573 493.53960181454795 1610.9592322958104 493.3367816352771Q1613.248202890439 493.13396145600615 1614.291278098118 491.859091757732L1614.291278098118 491.859091757732Q1613.8566634282517 491.45345139919027 1612.8135882205727 491.2506312199194L1612.8135882205727 491.2506312199194Q1612.0023075034894 491.04781104064847 1611.4807698996497 490.7290936160799Q1610.9592322958104 490.4103761915114 1611.1620524750813 489.16448080456166L1611.1620524750813 489.16448080456166Q1613.6538432489808 488.52704595542457 1616.8989661173148 484.99217997384625Q1620.1151146743248 481.4283396809435 1623.157417363388 477.7775764540675Q1626.1707457411271 474.1268132271915 1627.851255797943 473.7211728686497L1627.851255797943 473.7211728686497Q1627.6484356186722 471.83784263256297 1628.5756135810532 470.27322982104465Q1629.5027915434346 468.7086170095264 1630.7776612417085 467.0570812640349L1630.7776612417085 467.0570812640349Q1632.0235566286585 465.37657120721894 1632.9507345910395 463.60913821642976Q1633.9068868647453 461.8417052256406 1632.4291969872 459.95837498955376L1632.4291969872 459.95837498955376Q1634.5153474025578 459.3209401404167 1634.718167581829 458.07504475346695Q1634.949962072424 456.82914936651724 1634.718167581829 455.1486393097013L1634.718167581829 455.1486393097013Q1634.5153474025578 453.69992374348067 1634.718167581829 452.8596687150727ZM1592.7923390954036 435.7648250336693L1592.7923390954036 435.7648250336693Q1592.183878557591 435.533030543074 1592.183878557591 434.72174982599046L1592.183878557591 434.72174982599046Q1592.183878557591 433.88149479758243 1590.9090088593168 434.08431497685336L1590.9090088593168 434.08431497685336Q1585.6936328209226 441.38584143060535 1583.3177392923208 448.57147063905967Q1580.9128714523947 455.7860741588384 1577.146210980221 465.1737510279481L1577.146210980221 465.1737510279481Q1577.580825650087 465.37657120721894 1577.986466008629 466.2168262356269L1577.986466008629 466.2168262356269Q1578.1892861878998 466.62246659416866 1578.5080036124684 466.73836383946633Q1578.826721037037 466.8252867734396 1579.666976065445 465.7822115657607L1579.666976065445 465.7822115657607Q1580.7100512731238 461.20427037650353 1583.2018420470233 455.7860741588384Q1585.6936328209226 450.3678779411732 1588.4172180854175 445.0366046574813Q1591.1408033499122 439.7053313737894 1592.7923390954036 435.7648250336693ZM1820.6173490392596 441.7914817891471L1820.6173490392596 441.7914817891471Q1820.8201692185305 450.3678779411732 1820.6173490392596 457.0319695457881Q1820.3855545486642 463.696061150403 1820.1827343693938 469.54887203793436L1820.1827343693938 469.54887203793436Q1819.777094010852 475.80732328400745 1819.6611967655542 481.6601341715388Q1819.574273831581 487.48397074774573 1819.9799141901228 494.17703666368504L1819.9799141901228 494.17703666368504Q1819.1396591617147 496.6688274375845 1818.7340188031728 500.7252310230023Q1818.299404133307 504.8106089197444 1818.5311986239024 508.5482950805937Q1818.7340188031728 512.3149555527673 1819.3424793409856 514.401105968125L1819.3424793409856 514.401105968125Q1818.0965839540356 516.4872563834826 1816.0104335386784 516.8059738080512Q1813.9242831233203 517.1246912326199 1813.9242831233203 519.8193021857901L1813.9242831233203 519.8193021857901Q1812.2727473778289 519.4136618272485 1809.9548024718758 519.8193021857901Q1807.6658318772472 520.2539168556564 1806.6227566695686 520.8623773934689L1806.6227566695686 520.8623773934689Q1804.130965895669 521.2969920633352 1801.8419953010405 519.0949444026799Q1799.5240503950874 516.8928967420245 1798.278155008138 513.6767481850147Q1797.032259621188 510.4316253166805 1797.032259621188 507.7370143635101Q1797.032259621188 505.01342909901535 1798.915589857275 504.37599424987826L1798.915589857275 504.37599424987826Q1798.915589857275 492.69934678614 1800.045587998927 482.1816717753782Q1801.2045604519033 471.63502245329204 1801.8419953010405 460.1611951688247L1801.8419953010405 460.1611951688247Q1802.2476356595823 453.0624888943436 1801.0886632066056 447.963010101247Q1799.9586650649537 442.83455699682594 1794.9461092058302 440.1399460436556L1794.9461092058302 440.1399460436556Q1792.8599587904725 440.98020107206355 1790.1363735259777 443.5878890912607Q1787.4417625728072 446.1955771104578 1786.1958671858577 447.64429267667845L1786.1958671858577 447.64429267667845Q1783.8779222799046 448.04993303522025 1779.9374159397846 452.6568485358018Q1775.9679352883402 457.234789725059 1771.7956344576244 463.49324097113214Q1767.6233336269095 469.75169221720523 1764.4941080038727 475.4886058594389Q1761.364882380836 481.22551950167264 1760.9302677109697 484.1519249454383L1760.9302677109697 484.1519249454383Q1758.2356567577997 486.0352551815251 1757.5112989746892 490.29447894621376Q1756.7579668802543 494.58267702222685 1756.671043946281 499.79805306062104Q1756.5551467009834 505.01342909901535 1755.8307889178734 509.5913702882725Q1755.106431134763 514.198285788854 1752.585666049539 516.6900765627536L1752.585666049539 516.6900765627536Q1748.645159709419 518.7762269781113 1745.081319416516 518.689304044138Q1741.5464534349378 518.5734067988404 1738.417227811901 518.1677664402987L1738.417227811901 518.1677664402987Q1736.9395379343562 517.9359719497033 1735.6936425474066 517.7331517704324Q1734.447747160457 517.5303315911615 1733.201851773507 517.5303315911615L1733.201851773507 517.5303315911615Q1734.447747160457 513.763671118988 1736.128257217273 507.62111711821245Q1737.7797929627643 501.478563117437 1738.6200479911724 495.509854984608Q1739.4603030195801 489.57012116310347 1737.9826131420352 486.87551020993305L1737.9826131420352 486.87551020993305Q1741.1118387650715 479.3421892655858 1741.3436332556669 469.54887203793436Q1741.5464534349378 459.7555548102829 1741.1118387650715 451.17915865825677L1741.1118387650715 451.17915865825677Q1741.1118387650715 449.7304430920361 1741.1118387650715 449.0930082428991L1741.1118387650715 449.0930082428991Q1740.909018585801 443.6748120252339 1739.3444057742824 440.22686897762884Q1737.7797929627643 436.80790024134814 1736.3310773965434 434.08431497685336L1736.3310773965434 434.08431497685336Q1735.6936425474066 433.2440599484454 1734.2449269811857 433.67867461831156Q1732.7672371036408 434.08431497685336 1731.7241618959622 434.92457000526133L1731.7241618959622 434.92457000526133Q1727.9864757351127 441.5886616098762 1721.612127243742 449.00608530892583Q1715.2667530636957 456.394534696651 1708.5736871477563 464.21759875424243Q1701.9095955431414 472.04066281183384 1697.0998598632889 480.38526447326467L1697.0998598632889 480.38526447326467Q1693.1303792118445 487.28115056847486 1690.6385884379451 495.2201118713639Q1688.1467976640454 503.1300988629285 1684.9016747957112 510.750342741249Q1681.656551927377 518.3705866195696 1675.8327153511702 523.9916030165056L1675.8327153511702 523.9916030165056Q1673.3119502659463 519.6164820065193 1673.7465649358126 514.6039261473959Q1674.1522052943544 509.5913702882725 1675.9196382851435 504.60778874047355Q1677.716045587257 499.5952328813502 1679.5704015120193 495.42293205063476L1679.5704015120193 495.42293205063476Q1679.8021960026147 494.7854972014977 1680.0919391158588 494.17703666368504Q1680.4106565404275 493.53960181454795 1680.6134767196984 492.9021669654109L1680.6134767196984 492.9021669654109Q1680.2078363611565 489.57012116310347 1682.1780895312165 484.99217997384625Q1684.177317012601 480.38526447326467 1686.4662876072296 475.80732328400745L1686.4662876072296 475.80732328400745Q1688.3496178433163 472.27245730242913 1689.7983334095372 469.02733443409494Q1691.2760232870821 465.7822115657607 1691.6816636456238 463.2904207918612L1691.6816636456238 463.2904207918612Q1693.7678140609817 460.36401534809556 1696.7811424387207 455.8729970928116Q1699.8234451277838 451.41095314885206 1702.1124157224124 447.4414724974076Q1704.401386317041 443.47199184596303 1704.19856613777 442.63173681755507L1704.19856613777 442.63173681755507Q1705.6472817039905 438.2566158075688 1709.2111219968936 435.3302103638031Q1712.7459879784717 432.40380492003743 1717.2370062337557 429.7091939668671Q1721.7280244890396 426.9856087023723 1725.2628904706182 423.24792254152305L1725.2628904706182 423.24792254152305Q1726.5087858575678 423.01612805092776 1727.9864757351127 423.13202529622544Q1729.4351913013336 423.24792254152305 1730.9128811788785 423.4507427207939L1730.9128811788785 423.4507427207939Q1733.8103123113199 423.65356290006486 1736.649794821112 423.5376656547672Q1739.4603030195801 423.4507427207939 1740.909018585801 421.36459230543625L1740.909018585801 421.36459230543625Q1742.386708463346 421.770232663978 1744.7626019919473 423.3348454754963Q1747.167469831874 424.89945828701457 1749.2536202472318 426.5799683438305Q1751.3397706625894 428.231504089322 1751.9772055117262 429.50637378759615L1751.9772055117262 429.50637378759615Q1753.8605357478134 432.8384195899036 1754.9905338894653 438.1407185622711Q1756.149506342442 443.47199184596303 1756.7579668802543 448.4845477050864Q1757.3954017293916 453.4971035642098 1757.8010420879334 456.394534696651L1757.8010420879334 456.394534696651Q1763.2482126169232 448.89018806362816 1771.7956344576244 441.38584143060535Q1780.3430562983265 433.88149479758243 1786.3986873651286 426.14535367396434L1786.3986873651286 426.14535367396434Q1788.8904781390281 425.9425334946934 1790.0494505920044 424.6966381077437Q1791.1794487336567 423.4507427207939 1792.4543184319307 422.2048473338442Q1793.7002138188807 420.92997763557 1796.626619262646 420.5243372770283L1796.626619262646 420.5243372770283Q1798.278155008138 420.32151709775735 1800.8858430273347 420.72715745629915Q1803.4935310465319 421.1617721261654 1805.5796814618895 422.2917702678174Q1807.6658318772472 423.4507427207939 1807.6658318772472 425.53689313615166L1807.6658318772472 425.53689313615166Q1812.0409528872335 426.9856087023723 1813.8373601893475 430.02791139143557Q1815.6047931801365 433.0412397691745 1816.7347913217884 436.2863626375087Q1817.8937637747651 439.5025111945185 1820.6173490392596 441.7914817891471Z " fill="#f9bdbd" transform="matrix(0.48057941505406526,0,0,0.48057941505406526,0,84.22388478733255)"/></g></svg>