<svg xmlns="http://www.w3.org/2000/svg" version="1.1" xmlns:xlink="http://www.w3.org/1999/xlink" xmlns:svgjs="http://svgjs.dev/svgjs" width="100%" height="100%" viewBox="0 0 1000 600"><rect width="1000" height="600" x="0" y="0" fill="#2c2936"/><g><rect width="333.3333333333333" height="333.3333333333333" rx="13.333333333333334" ry="13.333333333333334" y="264.8098605392191" fill="#c3aef5" transform="matrix(0.5152778424251289,0,0,0.5152778424251288,0,77.66973532798374)" x="242.58769226074216"/><path d="M346.58511358382844 506.47653365696164Q328.62573280436845 506.47653365696164 317.65861497781617 496.8730521739225Q306.6914971512639 487.2405571516596 306.6914971512639 471.57324597087063L306.6914971512639 471.57324597087063Q306.6914971512639 455.70284001551585 318.1808586838425 445.98330437558195Q329.67022021642106 436.29278227487174 348.47099363336787 436.29278227487174L348.47099363336787 436.29278227487174Q368.519349236933 436.29278227487174 381.4884012699194 450.4804029552528L381.4884012699194 450.4804029552528L382.30078036818253 449.63901031776606Q380.0087107695116 447.1438459445293 377.07834330791957 444.41657325750305L377.07834330791957 444.41657325750305L377.07834330791957 435.6544844119507Q377.07834330791957 425.00651551685894 370.40522928647243 419.1457805936749Q363.73211526502524 413.31405920971457 351.40136109495984 413.31405920971457L351.40136109495984 413.31405920971457Q329.4671254418553 413.31405920971457 320.0667387333819 430.63514212625347L320.0667387333819 430.63514212625347Q316.7301817226583 428.9813703905035 314.52515274165836 426.1380435465826Q312.3201237606584 423.3237302418853 312.3201237606584 420.3933627802933L312.3201237606584 420.3933627802933Q312.3201237606584 414.76473617089874 317.9777639092767 409.65835326753046Q323.6063905186713 404.5229568249385 332.9197366094736 401.38949458878074Q342.20406916105225 398.2560323526229 352.44584850701244 398.2560323526229L352.44584850701244 398.2560323526229Q372.29110933601186 398.2560323526229 383.66441671169565 408.09162214945155Q395.06673762660324 417.89819840705655 395.06673762660324 435.24829486281914L395.06673762660324 435.24829486281914L395.06673762660324 492.4629942119226Q395.06673762660324 499.77440609629076 390.8887879783928 503.13997664623804Q386.7108383301824 506.47653365696164 377.7166411708406 506.47653365696164L377.7166411708406 506.47653365696164L377.7166411708406 496.64094386013295Q382.09768559361675 492.056804662791 382.532888681972 491.2154120253042L382.532888681972 491.2154120253042L381.6914960444852 490.3740193878174Q368.11315968780144 506.47653365696164 346.58511358382844 506.47653365696164L346.58511358382844 506.47653365696164ZM349.71857581998626 492.056804662791Q362.68762785297264 492.056804662791 370.0860803550119 486.6312728279623Q377.5135463962748 481.2057409931335 377.5135463962748 471.57324597087063L377.5135463962748 471.57324597087063Q377.5135463962748 461.96976448783147 370.20213451190665 456.3411378784369Q362.8907226275384 450.6834977298186 350.15377890834145 450.6834977298186L350.15377890834145 450.6834977298186Q338.2292142874076 450.6834977298186 331.44004610906575 456.22508372154215Q324.6508779307239 461.7666697132657 324.6508779307239 471.57324597087063L324.6508779307239 471.57324597087063Q324.6508779307239 481.40883576769926 331.23695133449996 486.7183134456333Q337.82302473827605 492.056804662791 349.71857581998626 492.056804662791L349.71857581998626 492.056804662791ZM423.2678977520234 506.47653365696164L423.2678977520234 370.69317009012383Q423.2678977520234 356.476535870519 441.6334680806149 356.476535870519L441.6334680806149 356.476535870519L441.6334680806149 407.4533242865305Q438.5000058444571 410.18059697355676 437.25242365783873 412.0374634838725L437.25242365783873 412.0374634838725L437.89072152075977 413.0819508959251Q444.15764599307533 406.4088368744779 453.2388837700882 402.3469413831623Q462.3201215471011 398.2560323526229 471.0822103926534 398.2560323526229L471.0822103926534 398.2560323526229Q489.6798890350344 398.2560323526229 500.76306101848144 408.09162214945155Q511.81721946270477 417.89819840705655 511.81721946270477 434.4069022253323L511.81721946270477 434.4069022253323L511.81721946270477 470.12256900968646Q511.81721946270477 480.56744313021244 506.71083655933654 488.9233424266332Q501.60445365596826 497.279241723054 492.4071617220606 501.86338092039597Q483.20986978815307 506.47653365696164 471.51741348100865 506.47653365696164L471.51741348100865 506.47653365696164Q451.03385478908825 506.47653365696164 437.04932888327295 488.5171528775017L437.04932888327295 488.5171528775017L436.4110310203519 489.3295319757648Q437.6586132069703 491.2154120253042 440.5889806685623 494.55196903602774L440.5889806685623 494.55196903602774Q440.5889806685623 500.6157987337776 436.4110310203519 503.5461661953696Q432.2330813721415 506.47653365696164 423.2678977520234 506.47653365696164L423.2678977520234 506.47653365696164ZM467.54255860736407 490.3740193878174Q480.27950232656104 490.3740193878174 487.0686705049029 484.94848755298864Q493.8578386832448 479.52295571815984 493.8578386832448 469.28117637219964L493.8578386832448 469.28117637219964L493.8578386832448 435.24829486281914Q493.8578386832448 425.4127050659905 486.98162988723186 419.87111907426697Q480.07640755199526 414.3585466217672 467.74565338192986 414.3585466217672L467.74565338192986 414.3585466217672Q456.8945897122723 414.3585466217672 449.14797473954883 420.1902680057275Q441.4303733060491 426.05100292891154 441.4303733060491 434.20380745076653L441.4303733060491 434.20380745076653L441.4303733060491 470.32566378425224Q441.4303733060491 478.8846578552388 448.94487996498304 484.6293386215281Q456.45938662391706 490.3740193878174 467.54255860736407 490.3740193878174L467.54255860736407 490.3740193878174Z " fill="#2c2936" transform="matrix(0.5152778424251289,0,0,0.5152778424251288,0,77.66973532798374)"/><path d="M699.1479721653712 506.47653365696164Q681.1885913859113 506.47653365696164 670.221473559359 496.8730521739225Q659.2543557328067 487.2405571516596 659.2543557328067 471.57324597087063L659.2543557328067 471.57324597087063Q659.2543557328067 455.70284001551585 670.7437172653853 445.98330437558195Q682.2330787979639 436.29278227487174 701.0338522149107 436.29278227487174L701.0338522149107 436.29278227487174Q721.0822078184758 436.29278227487174 734.0512598514623 450.4804029552528L734.0512598514623 450.4804029552528L734.8636389497254 449.63901031776606Q732.5715693510543 447.1438459445293 729.6412018894624 444.41657325750305L729.6412018894624 444.41657325750305L729.6412018894624 435.6544844119507Q729.6412018894624 425.00651551685894 722.9680878680152 419.1457805936749Q716.294973846568 413.31405920971457 703.9642196765027 413.31405920971457L703.9642196765027 413.31405920971457Q682.0299840233981 413.31405920971457 672.6295973149247 430.63514212625347L672.6295973149247 430.63514212625347Q669.2930403042011 428.9813703905035 667.0880113232012 426.1380435465826Q664.8829823422012 423.3237302418853 664.8829823422012 420.3933627802933L664.8829823422012 420.3933627802933Q664.8829823422012 414.76473617089874 670.5406224908196 409.65835326753046Q676.1692491002141 404.5229568249385 685.4825951910165 401.38949458878074Q694.766927742595 398.2560323526229 705.0087070885553 398.2560323526229L705.0087070885553 398.2560323526229Q724.8539679175547 398.2560323526229 736.2272752932384 408.09162214945155Q747.629596208146 417.89819840705655 747.629596208146 435.24829486281914L747.629596208146 435.24829486281914L747.629596208146 492.4629942119226Q747.629596208146 499.77440609629076 743.4516465599356 503.13997664623804Q739.2736969117252 506.47653365696164 730.2794997523835 506.47653365696164L730.2794997523835 506.47653365696164L730.2794997523835 496.64094386013295Q734.6605441751595 492.056804662791 735.0957472635148 491.2154120253042L735.0957472635148 491.2154120253042L734.254354626028 490.3740193878174Q720.6760182693442 506.47653365696164 699.1479721653712 506.47653365696164L699.1479721653712 506.47653365696164ZM702.281434401529 492.056804662791Q715.2504864345154 492.056804662791 722.6489389365547 486.6312728279623Q730.0764049778176 481.2057409931335 730.0764049778176 471.57324597087063L730.0764049778176 471.57324597087063Q730.0764049778176 461.96976448783147 722.7649930934494 456.3411378784369Q715.4535812090812 450.6834977298186 702.7166374898843 450.6834977298186L702.7166374898843 450.6834977298186Q690.7920728689504 450.6834977298186 684.0029046906085 456.22508372154215Q677.2137365122667 461.7666697132657 677.2137365122667 471.57324597087063L677.2137365122667 471.57324597087063Q677.2137365122667 481.40883576769926 683.7998099160428 486.7183134456333Q690.3858833198188 492.056804662791 702.281434401529 492.056804662791L702.281434401529 492.056804662791ZM862.2911032201423 398.2560323526229L862.2911032201423 491.0123172507384Q862.2911032201423 506.47653365696164 844.7669255290377 506.47653365696164L844.7669255290377 506.47653365696164L844.7669255290377 493.1012920748436Q846.6237920393534 491.2154120253042 849.1479699518138 487.4726654654491L849.1479699518138 487.4726654654491L848.3065773143271 486.6312728279623Q842.0396528420114 495.59645644808035 832.5232119766433 501.05100182213283Q823.0357846504988 506.47653365696164 811.7495178924861 506.47653365696164L811.7495178924861 506.47653365696164Q800.4632511344732 506.47653365696164 791.788202906592 501.6602861458302Q783.1421682179343 496.8730521739225 778.4419748636976 488.28504456371223Q773.741781509461 479.7260504927256 773.741781509461 469.07808159763385L773.741781509461 469.07808159763385L773.741781509461 411.63127393474093Q773.741781509461 404.7260515995043 778.3259207068029 401.50554874567547Q782.9100599041449 398.2560323526229 792.1073518380525 398.2560323526229L792.1073518380525 398.2560323526229L792.1073518380525 468.23668896014703Q792.1073518380525 478.27537353154145 798.0551273789076 484.33920322929123Q804.0319164589863 490.3740193878174 815.7243727661307 490.3740193878174L815.7243727661307 490.3740193878174Q823.4419741996305 490.3740193878174 829.9119934465118 487.1535165339886Q836.4110262326169 483.90400014093603 840.2698269493667 478.3624141492125Q844.1286276661167 472.8498416967127 844.1286276661167 466.3508089106076L844.1286276661167 466.3508089106076L844.1286276661167 411.63127393474093Q844.1286276661167 404.7260515995043 848.6257262457875 401.50554874567547Q853.1228248254585 398.2560323526229 862.2911032201423 398.2560323526229L862.2911032201423 398.2560323526229ZM929.7765954544298 506.47653365696164Q911.8172146749698 506.47653365696164 900.6470020738517 496.5539032424619Q889.44777593351 486.6312728279623 889.44777593351 470.12256900968646L889.44777593351 470.12256900968646L889.44777593351 434.4069022253323Q889.44777593351 423.75893333024055 894.6702129937729 415.49007465149083Q899.8926500540359 407.25022951196473 909.2059961448383 402.75313093229386Q918.4903286964169 398.2560323526229 930.6179880919165 398.2560323526229L930.6179880919165 398.2560323526229Q940.4245643495215 398.2560323526229 948.7804636459423 402.3469413831623Q957.136362942363 406.4088368744779 963.4032874146786 413.0819508959251L963.4032874146786 413.0819508959251L964.0415852775997 412.0374634838725Q962.5618947771918 409.9484886597673 959.6605408548235 407.4533242865305L959.6605408548235 407.4533242865305L959.6605408548235 370.69317009012383Q959.6605408548235 363.78794775488717 964.2446800521654 360.13224181270306Q968.8288192495074 356.476535870519 978.026111183415 356.476535870519L978.026111183415 356.476535870519L978.026111183415 491.65061511365946Q978.026111183415 498.5268239096724 973.9642156920993 502.501678783317Q969.87330666156 506.47653365696164 960.9081230414419 506.47653365696164L960.9081230414419 506.47653365696164L960.9081230414419 494.7840773498172Q963.8384905030339 491.0123172507384 964.8829779150865 489.3295319757648L964.8829779150865 489.3295319757648L964.2446800521654 488.5171528775017Q957.5715660307183 496.8730521739225 949.4187615088633 501.6602861458302Q941.2659569870083 506.47653365696164 929.7765954544298 506.47653365696164L929.7765954544298 506.47653365696164ZM933.7514503280743 490.3740193878174Q944.8056087722975 490.3740193878174 952.3491289704552 484.6293386215281Q959.8636356293893 478.8846578552388 959.8636356293893 470.32566378425224L959.8636356293893 470.32566378425224L959.8636356293893 434.20380745076653Q959.8636356293893 425.84790815434576 952.7553185195869 420.10322738805644Q945.6470014097845 414.3585466217672 933.5483555535086 414.3585466217672L933.5483555535086 414.3585466217672Q921.2176013834431 414.3585466217672 914.4284332051012 419.87111907426697Q907.6392650267593 425.4127050659905 907.6392650267593 435.24829486281914L907.6392650267593 435.24829486281914L907.6392650267593 469.28117637219964Q907.6392650267593 479.52295571815984 914.4284332051012 484.94848755298864Q921.2176013834431 490.3740193878174 933.7514503280743 490.3740193878174L933.7514503280743 490.3740193878174ZM1021.0531898521374 382.5887211718339Q1015.221468468177 382.5887211718339 1011.2466135945324 378.8459746119788Q1007.2717587208878 375.07421451289997 1007.2717587208878 369.44558790350544L1007.2717587208878 369.44558790350544Q1007.2717587208878 363.78794775488717 1011.2466135945324 360.13224181270306Q1015.221468468177 356.476535870519 1021.0531898521374 356.476535870519L1021.0531898521374 356.476535870519Q1026.7108300007558 356.476535870519 1030.6856848744 360.13224181270306Q1034.631526208821 363.78794775488717 1034.631526208821 369.44558790350544L1034.631526208821 369.44558790350544Q1034.631526208821 375.07421451289997 1030.6856848744 378.8459746119788Q1026.7108300007558 382.5887211718339 1021.0531898521374 382.5887211718339L1021.0531898521374 382.5887211718339ZM1011.8849114574534 506.47653365696164L1011.8849114574534 411.63127393474093Q1011.8849114574534 404.7260515995043 1016.3529964979007 401.50554874567547Q1020.8500950775715 398.2560323526229 1030.0473870114793 398.2560323526229L1030.0473870114793 398.2560323526229L1030.0473870114793 493.1012920748436Q1030.0473870114793 500.00651441008023 1025.5502884318084 503.2270172639091Q1021.0531898521374 506.47653365696164 1011.8849114574534 506.47653365696164L1011.8849114574534 506.47653365696164ZM1098.3452583440298 506.47653365696164Q1085.6083146248325 506.47653365696164 1075.2794946612016 501.6602861458302Q1064.9216611583465 496.8730521739225 1059.1769803920574 488.60419349517275Q1053.4322996257679 480.36434835564665 1053.4322996257679 470.12256900968646L1053.4322996257679 470.12256900968646L1053.4322996257679 435.8575791865165Q1053.4322996257679 425.4127050659905 1059.1769803920574 416.85371099500395Q1064.9216611583465 408.29471692401734 1075.163440504307 403.27537463832016Q1085.4052198502668 398.2560323526229 1098.3452583440298 398.2560323526229L1098.3452583440298 398.2560323526229Q1111.3143103770162 398.2560323526229 1121.6431303406475 403.27537463832016Q1132.0009638435022 408.29471692401734 1137.7456446097917 416.85371099500395Q1143.4903253760808 425.4127050659905 1143.4903253760808 435.8575791865165L1143.4903253760808 435.8575791865165L1143.4903253760808 470.12256900968646Q1143.4903253760808 480.36434835564665 1137.629590452897 488.60419349517275Q1131.7688555297127 496.8730521739225 1121.5560897229761 501.6602861458302Q1111.3143103770162 506.47653365696164 1098.3452583440298 506.47653365696164L1098.3452583440298 506.47653365696164ZM1098.3452583440298 490.80922247617264Q1110.879107288661 490.80922247617264 1118.3065733299236 484.8614469353176Q1125.7340393711866 478.8846578552388 1125.7340393711866 469.28117637219964L1125.7340393711866 469.28117637219964L1125.7340393711866 436.4958770494375Q1125.7340393711866 426.4571924780431 1118.3065733299236 420.1902680057275Q1110.879107288661 413.9233435334119 1098.3452583440298 413.9233435334119L1098.3452583440298 413.9233435334119Q1086.043517713188 413.9233435334119 1078.4999975150304 420.1902680057275Q1070.9854908560965 426.4571924780431 1070.9854908560965 436.4958770494375L1070.9854908560965 436.4958770494375L1070.9854908560965 469.28117637219964Q1070.9854908560965 478.8846578552388 1078.4129568973594 484.8614469353176Q1085.8114093993986 490.80922247617264 1098.3452583440298 490.80922247617264L1098.3452583440298 490.80922247617264ZM1167.5135358532907 506.47653365696164L1167.5135358532907 370.69317009012383Q1167.5135358532907 356.476535870519 1185.879106181882 356.476535870519L1185.879106181882 356.476535870519L1185.879106181882 407.4533242865305Q1182.7456439457242 410.18059697355676 1181.498061759106 412.0374634838725L1181.498061759106 412.0374634838725L1182.1363596220272 413.0819508959251Q1188.4032840943428 406.4088368744779 1197.4845218713554 402.3469413831623Q1206.5657596483684 398.2560323526229 1215.3278484939206 398.2560323526229L1215.3278484939206 398.2560323526229Q1233.9255271363018 398.2560323526229 1245.0086991197486 408.09162214945155Q1256.062857563972 417.89819840705655 1256.062857563972 434.4069022253323L1256.062857563972 434.4069022253323L1256.062857563972 470.12256900968646Q1256.062857563972 480.56744313021244 1250.9564746606038 488.9233424266332Q1245.8500917572355 497.279241723054 1236.6527998233278 501.86338092039597Q1227.4555078894205 506.47653365696164 1215.7630515822761 506.47653365696164L1215.7630515822761 506.47653365696164Q1195.2794928903554 506.47653365696164 1181.2949669845402 488.5171528775017L1181.2949669845402 488.5171528775017L1180.656669121619 489.3295319757648Q1181.9042513082377 491.2154120253042 1184.8346187698294 494.55196903602774L1184.8346187698294 494.55196903602774Q1184.8346187698294 500.6157987337776 1180.656669121619 503.5461661953696Q1176.4787194734085 506.47653365696164 1167.5135358532907 506.47653365696164L1167.5135358532907 506.47653365696164ZM1211.7881967086314 490.3740193878174Q1224.5251404278283 490.3740193878174 1231.31430860617 484.94848755298864Q1238.1034767845122 479.52295571815984 1238.1034767845122 469.28117637219964L1238.1034767845122 469.28117637219964L1238.1034767845122 435.24829486281914Q1238.1034767845122 425.4127050659905 1231.227267988499 419.87111907426697Q1224.3220456532626 414.3585466217672 1211.991291483197 414.3585466217672L1211.991291483197 414.3585466217672Q1201.1402278135397 414.3585466217672 1193.3936128408163 420.1902680057275Q1185.6760114073163 426.05100292891154 1185.6760114073163 434.20380745076653L1185.6760114073163 434.20380745076653L1185.6760114073163 470.32566378425224Q1185.6760114073163 478.8846578552388 1193.1905180662502 484.6293386215281Q1200.7050247251846 490.3740193878174 1211.7881967086314 490.3740193878174L1211.7881967086314 490.3740193878174ZM1313.5096652268653 506.47653365696164Q1298.2775571344314 506.47653365696164 1290.7630504754975 498.00458020364607Q1283.2195302773398 489.56164028955425 1283.2195302773398 475.751195619081L1283.2195302773398 475.751195619081L1283.2195302773398 369.851777452637Q1283.2195302773398 362.94655511740035 1287.7166288570106 359.7260522635715Q1292.2137274366814 356.476535870519 1301.4110193705892 356.476535870519L1301.4110193705892 356.476535870519L1301.4110193705892 475.14191129538364Q1301.4110193705892 483.2947158172387 1304.7475763813127 486.83436760252806Q1308.0841333920362 490.3740193878174 1315.8307483647595 490.3740193878174L1315.8307483647595 490.3740193878174Q1323.5483497982596 490.3740193878174 1330.0183690451408 486.6312728279623L1330.0183690451408 486.6312728279623Q1332.7456417321669 489.76473506412003 1332.7456417321669 493.94268471233045L1332.7456417321669 493.94268471233045Q1332.7456417321669 498.9620269980276 1327.5232046719038 502.7047735578828Q1322.3007676116413 506.47653365696164 1313.5096652268653 506.47653365696164L1313.5096652268653 506.47653365696164ZM1389.1479619830075 506.47653365696164Q1376.4110182638105 506.47653365696164 1366.0531847609554 501.6602861458302Q1355.7243647973241 496.8730521739225 1349.979684031035 488.60419349517275Q1344.2350032647455 480.36434835564665 1344.2350032647455 470.12256900968646L1344.2350032647455 470.12256900968646L1344.2350032647455 435.8575791865165Q1344.2350032647455 425.4127050659905 1349.979684031035 416.85371099500395Q1355.7243647973241 408.29471692401734 1365.9661441432845 403.27537463832016Q1376.178909950021 398.2560323526229 1389.1479619830075 398.2560323526229L1389.1479619830075 398.2560323526229Q1402.08800047677 398.2560323526229 1412.4458339796251 403.27537463832016Q1422.7746539432565 408.29471692401734 1428.5193347095455 416.85371099500395Q1434.264015475835 425.4127050659905 1434.264015475835 435.8575791865165L1434.264015475835 435.8575791865165L1434.264015475835 470.12256900968646Q1434.264015475835 480.36434835564665 1428.4032805526508 488.60419349517275Q1422.5715591686903 496.8730521739225 1412.3297798227304 501.6602861458302Q1402.08800047677 506.47653365696164 1389.1479619830075 506.47653365696164L1389.1479619830075 506.47653365696164ZM1389.1479619830075 490.80922247617264Q1401.6818109276387 490.80922247617264 1409.0802634296779 484.8614469353176Q1416.5077294709408 478.8846578552388 1416.5077294709408 469.28117637219964L1416.5077294709408 469.28117637219964L1416.5077294709408 436.4958770494375Q1416.5077294709408 426.4571924780431 1409.0802634296779 420.1902680057275Q1401.6818109276387 413.9233435334119 1389.1479619830075 413.9233435334119L1389.1479619830075 413.9233435334119Q1376.817207812942 413.9233435334119 1369.302701154008 420.1902680057275Q1361.788194495074 426.4571924780431 1361.788194495074 436.4958770494375L1361.788194495074 436.4958770494375L1361.788194495074 469.28117637219964Q1361.788194495074 478.8846578552388 1369.1866469971133 484.8614469353176Q1376.6141130383762 490.80922247617264 1389.1479619830075 490.80922247617264L1389.1479619830075 490.80922247617264ZM1494.8442853748857 506.47653365696164Q1482.1073416556887 506.47653365696164 1471.7495081528336 501.6602861458302Q1461.4206881892028 496.8730521739225 1455.6760074229132 488.60419349517275Q1449.9313266566237 480.36434835564665 1449.9313266566237 470.12256900968646L1449.9313266566237 470.12256900968646L1449.9313266566237 435.8575791865165Q1449.9313266566237 425.4127050659905 1455.6760074229132 416.85371099500395Q1461.4206881892028 408.29471692401734 1471.6624675351627 403.27537463832016Q1481.9042468811226 398.2560323526229 1494.8442853748857 398.2560323526229L1494.8442853748857 398.2560323526229Q1507.7843238686482 398.2560323526229 1518.1421573715033 403.27537463832016Q1528.4709773351346 408.29471692401734 1534.2156581014237 416.85371099500395Q1539.9603388677133 425.4127050659905 1539.9603388677133 435.8575791865165L1539.9603388677133 435.8575791865165L1539.9603388677133 470.12256900968646Q1539.9603388677133 480.36434835564665 1534.1286174837528 488.60419349517275Q1528.2678825605685 496.8730521739225 1518.0261032146086 501.6602861458302Q1507.7843238686482 506.47653365696164 1494.8442853748857 506.47653365696164L1494.8442853748857 506.47653365696164ZM1494.8442853748857 490.80922247617264Q1507.378134319517 490.80922247617264 1514.8056003607799 484.8614469353176Q1522.204052862819 478.8846578552388 1522.204052862819 469.28117637219964L1522.204052862819 469.28117637219964L1522.204052862819 436.4958770494375Q1522.204052862819 426.4571924780431 1514.8056003607799 420.1902680057275Q1507.378134319517 413.9233435334119 1494.8442853748857 413.9233435334119L1494.8442853748857 413.9233435334119Q1482.51353120482 413.9233435334119 1474.9990245458862 420.1902680057275Q1467.4845178869523 426.4571924780431 1467.4845178869523 436.4958770494375L1467.4845178869523 436.4958770494375L1467.4845178869523 469.28117637219964Q1467.4845178869523 478.8846578552388 1474.8829703889915 484.8614469353176Q1482.3104364302544 490.80922247617264 1494.8442853748857 490.80922247617264L1494.8442853748857 490.80922247617264ZM1563.9835493449227 506.47653365696164L1563.9835493449227 413.72024875884614Q1563.9835493449227 398.2560323526229 1581.3336458006856 398.2560323526229L1581.3336458006856 398.2560323526229L1581.3336458006856 411.63127393474093Q1578.6063731136592 414.56164139633296 1576.9526013779096 417.2599005441355L1576.9526013779096 417.2599005441355L1577.7649804761727 418.1012931816223Q1584.467108036843 408.7009064731489 1591.9816146957774 403.47846941288594Q1599.4961213547112 398.2560323526229 1609.3317111515398 398.2560323526229L1609.3317111515398 398.2560323526229Q1628.3355793430524 398.2560323526229 1635.443896452855 416.4475214458724L1635.443896452855 416.4475214458724Q1647.339447534565 398.2560323526229 1667.1847083635644 398.2560323526229L1667.1847083635644 398.2560323526229Q1682.0106269068665 398.2560323526229 1690.047377271827 408.1786627671226Q1698.1131411760107 418.1012931816223 1698.1131411760107 434.20380745076653L1698.1131411760107 434.20380745076653L1698.1131411760107 493.1012920748436Q1698.1131411760107 500.00651441008023 1693.6160425963399 503.2270172639091Q1689.118944016669 506.47653365696164 1680.124746857327 506.47653365696164L1680.124746857327 506.47653365696164L1680.124746857327 435.24829486281914Q1680.124746857327 425.2096102914247 1675.946797209117 419.58098368203014Q1671.7688475609061 413.9233435334119 1662.8036639407883 413.9233435334119L1662.8036639407883 413.9233435334119Q1653.4032772323148 413.9233435334119 1646.7011496716436 420.3063221626222Q1640.0280356501967 426.6602872526089 1640.0280356501967 437.33726968692434L1640.0280356501967 437.33726968692434L1640.0280356501967 493.1012920748436Q1640.0280356501967 500.00651441008023 1635.6469912274206 503.2270172639091Q1631.2659468046445 506.47653365696164 1622.2717496453029 506.47653365696164L1622.2717496453029 506.47653365696164L1622.2717496453029 435.24829486281914Q1622.2717496453029 425.2096102914247 1618.0937999970924 419.58098368203014Q1613.9158503488816 413.9233435334119 1604.92165318954 413.9233435334119L1604.92165318954 413.9233435334119Q1595.3181717065008 413.9233435334119 1588.6450576850539 420.8285658686485Q1581.9429301243827 427.70477466466144 1581.9429301243827 437.7434592360559L1581.9429301243827 437.7434592360559L1581.9429301243827 493.1012920748436Q1581.9429301243827 500.00651441008023 1577.4748450839356 503.2270172639091Q1572.9777465042648 506.47653365696164 1563.9835493449227 506.47653365696164L1563.9835493449227 506.47653365696164Z " fill="#c3aef5" transform="matrix(0.5152778424251289,0,0,0.5152778424251288,0,77.66973532798374)"/></g></svg>