<?xml version="1.0" encoding="UTF-8" standalone="no"?><!DOCTYPE svg PUBLIC "-//W3C//DTD SVG 1.1//EN" "http://www.w3.org/Graphics/SVG/1.1/DTD/svg11.dtd"><svg width="900px" height="1440px" version="1.1" xmlns="http://www.w3.org/2000/svg" xmlns:xlink="http://www.w3.org/1999/xlink" xml:space="preserve" xmlns:serif="http://www.serif.com/" style="fill-rule:evenodd;clip-rule:evenodd;stroke-linejoin:round;stroke-miterlimit:2;"><path d="M82.841,737.155l5.524,-31.571l1.292,-0c33.006,-0 57.904,-23.32 57.904,-54.245c0,-15.786 -7.605,-24.683 -20.88,-24.683c-12.485,-0 -21.956,5.955 -26.118,16.575l-1.578,-0l0.646,-15.14l-15.642,0l-19.158,109.064l18.01,0Zm8.466,-48.074l2.225,-12.916c4.377,-23.176 15.929,-33.006 26.476,-33.006c6.028,0 9.472,3.875 9.472,10.763c-0,20.091 -15.858,35.159 -36.953,35.159l-1.22,-0Z" style="fill:#fff;fill-rule:nonzero;"/><path d="M204.246,705.584c9.543,-0 16.575,-2.583 23.32,-5.884l-4.951,-14.853c-5.74,3.086 -9.256,4.234 -14.709,4.234c-8.109,-0 -12.27,-3.229 -12.198,-9.687c-0,-2.439 0.645,-6.96 2.941,-15.355l10.189,-38.172c5.525,-20.45 -2.87,-30.782 -23.463,-30.782c-6.171,-0 -12.413,0.574 -18.512,2.081l2.655,16.072c4.018,-1.22 8.251,-1.722 12.27,-1.722c8.969,0 11.48,4.449 9.04,13.992l-10.188,38.531c-2.368,8.754 -3.014,13.705 -3.014,16.934c-0,16.575 8.826,24.611 26.62,24.611Z" style="fill:#fff;fill-rule:nonzero;"/><path d="M263.012,705.656c11.982,-0 21.741,-6.602 27.625,-18.369l2.367,-0c-1.004,10.261 1.22,17.579 18.584,17.579l6.745,0l2.583,-14.852l-3.229,-0c-8.108,-0 -10.117,-2.512 -8.897,-9.615l9.256,-53.025l-1.65,-0c-42.765,-0 -75.054,22.386 -75.054,56.899c0,13.562 7.893,21.383 21.67,21.383Zm4.664,-16.503c-5.454,-0 -8.252,-2.655 -8.252,-7.965c0,-18.369 16.001,-32.791 37.598,-36.45l-2.08,11.552c-3.66,20.952 -14.207,32.863 -27.266,32.863Z" style="fill:#fff;fill-rule:nonzero;"/><path d="M324.504,738.016c47.931,-20.306 72.972,-53.169 83.879,-109.925l-18.082,0c-3.875,21.956 -10.261,39.679 -20.234,54.317c-8.682,-13.848 -15.857,-32.289 -21.526,-55.752l-18.297,1.435c7.893,28.271 17.149,50.873 28.127,68.38c-10.763,10.763 -24.396,19.374 -41.616,26.405l7.749,15.14Z" style="fill:#fff;fill-rule:nonzero;"/><path d="M462.556,705.584c9.543,-0 16.575,-2.583 23.32,-5.884l-4.951,-14.853c-5.74,3.086 -9.256,4.234 -14.709,4.234c-8.109,-0 -12.27,-3.229 -12.198,-9.687c-0,-2.439 0.645,-6.96 2.941,-15.355l10.189,-38.172c5.525,-20.45 -2.87,-30.782 -23.463,-30.782c-6.171,-0 -12.413,0.574 -18.512,2.081l2.655,16.072c4.018,-1.22 8.251,-1.722 12.27,-1.722c8.969,0 11.48,4.449 9.04,13.992l-10.188,38.531c-2.368,8.754 -3.014,13.705 -3.014,16.934c-0,16.575 8.825,24.611 26.62,24.611Z" style="fill:#fff;fill-rule:nonzero;"/><path d="M565.808,685.134c-4.951,2.87 -7.964,3.947 -12.7,3.947c-7.247,-0 -10.835,-3.157 -10.404,-9.4c0.646,-9.471 5.453,-16.503 7.749,-26.261c4.305,-17.651 -4.018,-26.764 -24.539,-26.764c-5.669,-0 -11.337,0.431 -16.934,2.009l1.507,16.073c4.377,-1.148 8.754,-1.651 13.131,-1.651c7.462,0 10.547,3.373 8.897,9.759c-2.152,8.61 -7.319,18.368 -7.964,28.773c-1.005,15.713 7.821,23.965 25.759,23.965c8.395,-0 14.566,-2.655 20.449,-6.027l-4.951,-14.423Zm-16.574,-68.021c6.816,-0 11.695,-4.879 11.695,-11.696c0,-6.816 -4.879,-11.695 -11.695,-11.695c-6.745,-0 -11.696,4.879 -11.696,11.695c-0,6.817 4.951,11.696 11.696,11.696Z" style="fill:#fff;fill-rule:nonzero;"/><path d="M614.816,705.584c27.194,-0 41.401,-8.969 41.401,-26.046c-0,-8.611 -5.597,-14.853 -16.216,-18.082l-20.952,-6.314c-2.727,-0.789 -4.305,-2.081 -4.305,-3.875c-0,-5.31 7.534,-8.108 21.956,-8.108c5.669,0 13.131,0.502 21.526,1.292l4.664,-16.073c-7.821,-1.076 -15.786,-1.722 -23.105,-1.722c-28.629,-0 -43.553,9.328 -43.553,27.194c-0,7.032 3.946,12.342 11.767,14.853l24.396,7.678c3.157,1.004 4.951,2.583 4.951,4.663c-0,5.238 -6.745,8.037 -19.589,8.037c-5.309,-0 -14.278,-1.148 -25.974,-3.157l-5.023,16.646c6.602,1.938 16.288,3.014 28.056,3.014Z" style="fill:#fff;fill-rule:nonzero;"/><path d="M715.843,705.584c10.476,-0 18.154,-2.224 25.401,-4.879l-3.229,-15.14c-7.39,2.655 -11.839,3.516 -18.943,3.516c-8.108,-0 -11.695,-3.014 -11.695,-9.902c-0,-5.31 0.717,-9.113 2.367,-18.441l2.942,-16.574l33.222,-0l2.798,-16.073l-33.221,0l4.018,-22.961l-18.01,0l-4.018,22.961l-17.293,0l-2.87,16.073l17.364,-0l-2.941,16.574c-1.866,10.62 -2.44,15.284 -2.44,21.598c-0,15.283 9.184,23.248 26.548,23.248Z" style="fill:#fff;fill-rule:nonzero;"/><path d="M787.022,705.584c27.194,-0 41.402,-8.969 41.402,-26.046c-0,-8.611 -5.597,-14.853 -16.217,-18.082l-20.951,-6.314c-2.727,-0.789 -4.306,-2.081 -4.306,-3.875c0,-5.31 7.535,-8.108 21.957,-8.108c5.668,0 13.131,0.502 21.526,1.292l4.664,-16.073c-7.822,-1.076 -15.786,-1.722 -23.105,-1.722c-28.629,-0 -43.554,9.328 -43.554,27.194c0,7.032 3.947,12.342 11.768,14.853l24.396,7.678c3.157,1.004 4.951,2.583 4.951,4.663c-0,5.238 -6.745,8.037 -19.589,8.037c-5.31,-0 -14.279,-1.148 -25.974,-3.157l-5.023,16.646c6.601,1.938 16.288,3.014 28.055,3.014Z" style="fill:#fff;fill-rule:nonzero;"/></svg>